<svg xmlns="http://www.w3.org/2000/svg" viewBox="0 0 378.64 351.72"><defs><style>.cls-1{opacity:0.5;}.cls-2{fill:#fff;}.cls-3{fill:#caf0ff;}.cls-4{fill:#000201;}.cls-5{fill:#14b8c4;}.cls-6{fill:#00abaf;}.cls-10,.cls-11,.cls-13,.cls-16,.cls-19,.cls-20,.cls-23,.cls-44,.cls-47,.cls-48,.cls-50,.cls-51,.cls-53,.cls-54,.cls-55,.cls-57,.cls-58,.cls-59,.cls-60,.cls-62,.cls-63,.cls-67,.cls-68,.cls-69,.cls-7,.cls-72,.cls-77,.cls-8,.cls-81,.cls-82,.cls-83,.cls-84,.cls-85,.cls-86,.cls-89,.cls-9,.cls-93,.cls-98{fill:none;}.cls-47,.cls-55,.cls-7,.cls-72,.cls-81,.cls-84,.cls-9{stroke:#fff;}.cls-10,.cls-11,.cls-13,.cls-16,.cls-20,.cls-44,.cls-47,.cls-48,.cls-50,.cls-51,.cls-53,.cls-54,.cls-55,.cls-57,.cls-58,.cls-59,.cls-60,.cls-62,.cls-63,.cls-67,.cls-68,.cls-69,.cls-7,.cls-72,.cls-77,.cls-8,.cls-81,.cls-82,.cls-83,.cls-84,.cls-85,.cls-86,.cls-89,.cls-9,.cls-93,.cls-98{stroke-linecap:round;stroke-linejoin:round;}.cls-10,.cls-7,.cls-8{stroke-width:1.11px;}.cls-8{stroke:#00abaf;}.cls-9{stroke-width:1.99px;}.cls-10,.cls-11,.cls-13,.cls-16,.cls-20,.cls-44,.cls-54,.cls-57,.cls-58,.cls-59,.cls-60,.cls-62,.cls-63,.cls-67,.cls-68,.cls-69,.cls-77,.cls-82,.cls-85,.cls-86,.cls-93,.cls-98{stroke:#000201;}.cls-11{stroke-width:0.64px;}.cls-12{fill:#f4ad5e;}.cls-13{stroke-width:1px;}.cls-14{fill:#34e0f7;}.cls-15{fill:#37a7d3;}.cls-16{stroke-width:0.86px;}.cls-17{fill:#dcf0ff;}.cls-18{fill:#b0dcf7;}.cls-20{stroke-width:0.52px;}.cls-21{fill:#ffc68d;}.cls-22{fill:#e28c37;}.cls-23{stroke:#ffdcc0;stroke-miterlimit:10;stroke-width:0.66px;}.cls-24{fill:#e64058;}.cls-25{fill:#fc9aad;}.cls-26{fill:#d6032b;}.cls-27{fill:#c40633;}.cls-28{fill:#ce0229;}.cls-29{fill:#ffd297;}.cls-30{fill:#abbcd3;}.cls-31{fill:#e0e3e8;}.cls-32{fill:#314c56;}.cls-33{fill:#263f47;}.cls-34{fill:#536b77;}.cls-35{fill:#334e59;}.cls-36{fill:#dce6ef;}.cls-37{fill:#8ba7c6;}.cls-38{fill:#b263e5;}.cls-39{fill:#97a8bf;}.cls-40{fill:#f3e6ff;}.cls-41{fill:#cfabf4;}.cls-42{fill:#f9a846;}.cls-43{fill:#d3aefc;}.cls-44{stroke-width:1.41px;}.cls-45{fill:#7e2ecc;}.cls-46{opacity:0.4;}.cls-47,.cls-48{stroke-width:2.62px;}.cls-48{stroke:#7e2ecc;}.cls-49{fill:#ffebd4;}.cls-50{stroke:#f9a846;}.cls-50,.cls-53{stroke-width:1.76px;}.cls-51{stroke:#e0c0ff;stroke-width:2.11px;}.cls-52{fill:#e0c0ff;}.cls-53{stroke:#fffaf5;}.cls-54{stroke-width:0.96px;}.cls-55{stroke-width:1.26px;}.cls-56{isolation:isolate;font-size:16.2px;font-family:OperatorMono-Bold, Operator Mono;}.cls-56,.cls-94{font-weight:700;}.cls-57{stroke-width:0.7px;}.cls-58{stroke-width:1.29px;}.cls-59{stroke-width:1.13px;}.cls-60{stroke-width:1.5px;}.cls-61{fill:#2a3e44;}.cls-62{stroke-width:0.64px;}.cls-63{stroke-width:0.48px;}.cls-64{fill:#31444c;}.cls-65{fill:#708993;}.cls-66{fill:#9cb5bc;}.cls-67{stroke-width:1.72px;}.cls-68{stroke-width:0.97px;}.cls-69,.cls-72{stroke-width:0.75px;}.cls-70{fill:#32f9c9;}.cls-71{fill:#108bf9;}.cls-73{fill:#ff4500;}.cls-74{fill:#b52200;}.cls-75{fill:#f9a68c;}.cls-76{fill:#dd7458;}.cls-77{stroke-width:1.12px;}.cls-78{fill:#ffc3b3;}.cls-79{fill:#d35a42;}.cls-80{fill:#7f6e7f;}.cls-81,.cls-82{stroke-width:0.8px;}.cls-83{stroke:#dd7458;stroke-width:0.95px;}.cls-84{stroke-width:1.26px;}.cls-85{stroke-width:0.71px;}.cls-86{stroke-width:1.53px;}.cls-87{fill:#eaedef;}.cls-88{fill:#ccd7dd;}.cls-89{stroke:#ccd7dd;stroke-width:1.61px;}.cls-90{fill:#ff5f57;}.cls-91{fill:#febc2e;}.cls-92{fill:#29c940;}.cls-93{stroke-width:0.95px;}.cls-94{font-size:12.55px;font-family:Jost-Bold, Jost;}.cls-95{fill:#347ab4;}.cls-96{fill:#195f8e;}.cls-97{fill:#ffca1d;}.cls-98{stroke-width:1.28px;}</style></defs><g id="Layer_2" data-name="Layer 2"><g id="Layer_2-2" data-name="Layer 2"><g class="cls-1"><path class="cls-2" d="M69.65,39.22A10.14,10.14,0,0,1,59.52,49.38H28.38a13.87,13.87,0,0,1,0-27.74h0a13.7,13.7,0,0,1,5,.93,13.87,13.87,0,0,1,26.12,6.52A10.15,10.15,0,0,1,69.65,39.2Z"/><path class="cls-3" d="M69.65,39.22A10.14,10.14,0,0,1,59.53,49.39H28.39a13.89,13.89,0,0,1-13.9-13.88v0a13.79,13.79,0,0,1,.82-4.67,13.86,13.86,0,0,0,13.08,9.23h31.1a10.11,10.11,0,0,0,9-5.47A9.67,9.67,0,0,1,69.65,39.22Z"/><path class="cls-4" d="M18,26.8a.54.54,0,0,1-.4-.9A13.5,13.5,0,0,1,19.7,24a.54.54,0,1,1,.65.86h0a13.61,13.61,0,0,0-1.94,1.78A.54.54,0,0,1,18,26.8Z"/><path class="cls-4" d="M59.48,49.93H28.38a14.43,14.43,0,0,1-12.26-22,.54.54,0,0,1,.92.56h0A13.33,13.33,0,0,0,28.38,48.84h31.1a9.61,9.61,0,1,0,0-19.21h0a.54.54,0,0,1-.54-.54,13.27,13.27,0,0,0-2.41-7.68.53.53,0,0,1,.13-.75.55.55,0,0,1,.76.13h0A14.45,14.45,0,0,1,60,28.56a10.69,10.69,0,0,1-.54,21.37Z"/><path class="cls-4" d="M22.57,23.44a.54.54,0,0,1-.22-1,14.47,14.47,0,0,1,10.76-.51,14.44,14.44,0,0,1,18.13-6.11.54.54,0,0,1,.28.71.53.53,0,0,1-.71.29h0a13.34,13.34,0,0,0-17,6,.55.55,0,0,1-.68.25,13,13,0,0,0-4.78-.9A13.26,13.26,0,0,0,22.8,23.4.45.45,0,0,1,22.57,23.44Z"/><path class="cls-4" d="M36.11,26.07a.53.53,0,0,1-.47-.28A6.89,6.89,0,0,0,32.89,23a.54.54,0,0,1,.52-.95h0a7.91,7.91,0,0,1,3.17,3.24.54.54,0,0,1-.21.73h0A.59.59,0,0,1,36.11,26.07Z"/><path class="cls-4" d="M59.48,49.67H28.38A14.19,14.19,0,0,1,14.2,35.49a.28.28,0,0,1,.28-.29.3.3,0,0,1,.3.29h0a13.61,13.61,0,0,0,13.6,13.6h31.1a9.86,9.86,0,1,0,0-19.71h0a.28.28,0,0,1-.29-.28.3.3,0,0,1,.29-.3h0a10.44,10.44,0,1,1,0,20.87Z"/><path class="cls-4" d="M55.75,19.66a.56.56,0,0,1-.37-.15,13.6,13.6,0,0,0-2.33-1.81.54.54,0,0,1,.57-.92,14.32,14.32,0,0,1,2.51,1.95.54.54,0,0,1,0,.76h0A.52.52,0,0,1,55.75,19.66Z"/></g><g class="cls-1"><path class="cls-2" d="M69.86,74.25A10.14,10.14,0,0,0,80,84.42h31.14a13.87,13.87,0,1,0,0-27.74h0a13.5,13.5,0,0,0-5,.93A13.87,13.87,0,0,0,80,64.13,10.13,10.13,0,0,0,69.86,74.24Z"/><path class="cls-3" d="M69.85,74.26A10.15,10.15,0,0,0,80,84.42h31.14A13.89,13.89,0,0,0,125,70.54h0a13.48,13.48,0,0,0-.83-4.67,13.87,13.87,0,0,1-13.07,9.23H80a10.17,10.17,0,0,1-9-5.47A9.75,9.75,0,0,0,69.85,74.26Z"/><path class="cls-4" d="M121.49,61.84a.55.55,0,0,0,.41-.91A15.73,15.73,0,0,0,119.81,59a.54.54,0,0,0-.65.87,14.07,14.07,0,0,1,1.93,1.77A.57.57,0,0,0,121.49,61.84Z"/><path class="cls-4" d="M80,85h31.11a14.43,14.43,0,0,0,12.26-22,.54.54,0,0,0-.92.58,13.35,13.35,0,0,1-11.34,20.38H80a9.61,9.61,0,1,1,0-19.21h0a.54.54,0,0,0,.54-.54A13.28,13.28,0,0,1,83,56.45a.55.55,0,0,0-.14-.76.54.54,0,0,0-.75.14h0a14.26,14.26,0,0,0-2.6,7.77A10.69,10.69,0,0,0,80,85Z"/><path class="cls-4" d="M116.93,58.48a.55.55,0,0,0,.55-.54.54.54,0,0,0-.32-.49,14.34,14.34,0,0,0-10.76-.51,14.45,14.45,0,0,0-18.13-6.11.53.53,0,0,0-.29.71.55.55,0,0,0,.71.29h0a13.35,13.35,0,0,1,17,6,.55.55,0,0,0,.68.25,12.89,12.89,0,0,1,4.79-.9,13.29,13.29,0,0,1,5.58,1.21A.59.59,0,0,0,116.93,58.48Z"/><path class="cls-4" d="M103.4,61.1a.56.56,0,0,0,.47-.28A7,7,0,0,1,106.62,58a.54.54,0,1,0-.52-.94h0a8,8,0,0,0-3.18,3.23.54.54,0,0,0,.21.73h0A.46.46,0,0,0,103.4,61.1Z"/><path class="cls-4" d="M80,84.71h31.11a14.2,14.2,0,0,0,14.18-14.18.29.29,0,1,0-.58,0h0a13.62,13.62,0,0,1-13.6,13.6H80a9.86,9.86,0,1,1,0-19.71h0a.31.31,0,0,0,.3-.29.29.29,0,0,0-.29-.29h0a10.44,10.44,0,0,0,0,20.87Z"/><path class="cls-4" d="M83.75,54.69a.54.54,0,0,0,.38-.15,13.54,13.54,0,0,1,2.33-1.8.55.55,0,0,0,.17-.75.54.54,0,0,0-.75-.18h0a15.22,15.22,0,0,0-2.51,1.95.55.55,0,0,0,0,.77h0A.48.48,0,0,0,83.75,54.69Z"/></g><path class="cls-5" d="M76.42.85A48.75,48.75,0,1,0,125.17,49.6h0A48.84,48.84,0,0,0,76.42.85Zm0,4.43a44,44,0,0,1,30.4,12.19,10.92,10.92,0,0,0-4.79-1.2c-2.88,0-7.66,1.24-7.66,9.53a21.64,21.64,0,0,0,4.21,9.62c2.92,4.74,6.25,10.1,5.4,14.31-1.9,5.63-4.56,13.38-7.13,20.7L84.44,31.87h.84A2.19,2.19,0,0,0,87.5,29.7v0a2.21,2.21,0,0,0-2.22-2.22H65.34a2.25,2.25,0,0,0-2.21,2.22,2.21,2.21,0,0,0,2.21,2.21H67l7,20C72.21,57.26,69.91,64,67.65,70.43L55.19,31.87h1.29a2.19,2.19,0,0,0,2.21-2.17v0a2.21,2.21,0,0,0-2.21-2.22H38.09A44.42,44.42,0,0,1,76.42,5.28ZM32.1,49.6a44,44,0,0,1,3.73-17.73h2L58.21,90A44.34,44.34,0,0,1,32.1,49.6ZM76.42,93.91a43.42,43.42,0,0,1-11.83-1.64c2-5.45,7.58-21.27,11.83-33.59L88.25,92.27A43,43,0,0,1,76.42,93.91ZM94.63,90c3-8.24,9.49-26.63,13.25-37.89a1.45,1.45,0,0,0,.18-.49,3.79,3.79,0,0,0,.18-.66c.58-1.64,1-3.1,1.42-4.3,2.35-7.45,4.56-17.11,2.74-22.78A44.15,44.15,0,0,1,94.63,90Z"/><path class="cls-6" d="M125.37,48.06v1.11a48.75,48.75,0,1,1-97.49,0V48.06a48.76,48.76,0,0,0,97.49,0Z"/><path class="cls-2" d="M27.88,50.78v-1.1a48.75,48.75,0,1,1,97.49,0v1.1a48.76,48.76,0,0,0-97.49,0Z"/><line class="cls-7" x1="46.81" y1="49.81" x2="52.65" y2="66.66"/><line class="cls-7" x1="41.86" y1="35.54" x2="45.77" y2="46.82"/><line class="cls-8" x1="99.84" y1="72.71" x2="94.1" y2="88.64"/><line class="cls-8" x1="70.64" y1="72.3" x2="64.91" y2="88.22"/><line class="cls-8" x1="90.12" y1="52.99" x2="85.05" y2="36.84"/><line class="cls-9" x1="40.4" y1="28.24" x2="53.75" y2="28.24"/><line class="cls-9" x1="68.03" y1="28.24" x2="81.38" y2="28.24"/><line class="cls-9" x1="68.76" y1="35.15" x2="73.53" y2="48.76"/><path class="cls-10" d="M76.42.85A48.75,48.75,0,1,0,125.17,49.6h0A48.84,48.84,0,0,0,76.42.85Zm0,4.43a44,44,0,0,1,30.4,12.19,10.92,10.92,0,0,0-4.79-1.2c-2.88,0-7.66,1.24-7.66,9.53a21.64,21.64,0,0,0,4.21,9.62c2.92,4.74,6.25,10.1,5.4,14.31-1.9,5.63-4.56,13.38-7.13,20.7L84.44,31.87h.84A2.19,2.19,0,0,0,87.5,29.7v0a2.21,2.21,0,0,0-2.22-2.22H65.34a2.25,2.25,0,0,0-2.21,2.22,2.21,2.21,0,0,0,2.21,2.21H67l7,20C72.21,57.26,69.91,64,67.65,70.43L55.19,31.87h1.29a2.19,2.19,0,0,0,2.21-2.17v0a2.21,2.21,0,0,0-2.21-2.22H38.09A44.42,44.42,0,0,1,76.42,5.28ZM47.32,59,58.21,90a44.22,44.22,0,0,1-22.38-58.1h2l3.79,10.78m1,2.82,3.65,10.39M82.55,76.1l5.7,16.17a43.42,43.42,0,0,1-23.66,0c2-5.45,7.58-21.27,11.83-33.59l4.4,12.5m38-8.68A44.52,44.52,0,0,1,94.63,90c3-8.24,9.49-26.63,13.25-37.89a1.45,1.45,0,0,0,.18-.49,3.79,3.79,0,0,0,.18-.66c.58-1.64,1-3.1,1.42-4.3,2.35-7.45,4.56-17.11,2.74-22.78a44.06,44.06,0,0,1,7.56,34"/><circle class="cls-2" cx="71.81" cy="39.45" r="0.94"/><circle class="cls-2" cx="72.96" cy="41.14" r="0.18"/><circle class="cls-2" cx="70.98" cy="34.73" r="0.44"/><circle class="cls-2" cx="72.1" cy="36.58" r="0.21"/><circle class="cls-2" cx="73.98" cy="37.78" r="0.47"/><circle class="cls-2" cx="73.38" cy="44.43" r="0.81"/><circle class="cls-2" cx="74.13" cy="42" r="0.42"/><circle class="cls-2" cx="76.17" cy="46.96" r="0.42"/><circle class="cls-2" cx="74.63" cy="48.6" r="0.44"/><circle class="cls-2" cx="68.87" cy="32.25" r="0.31"/><circle class="cls-2" cx="71.81" cy="29.57" r="0.86"/><circle class="cls-2" cx="75.78" cy="31.45" r="0.34"/><circle class="cls-2" cx="77.83" cy="29.86" r="0.68"/><circle class="cls-6" cx="97.13" cy="77.46" r="1.04"/><circle class="cls-6" cx="93.59" cy="82.81" r="0.74"/><circle class="cls-6" cx="94.61" cy="80.08" r="0.27"/><circle class="cls-6" cx="94.45" cy="73.12" r="0.66"/><circle class="cls-6" cx="92.89" cy="87.98" r="0.12"/><circle class="cls-6" cx="92.97" cy="86.25" r="0.27"/><line class="cls-11" x1="17.54" y1="97.63" x2="27.86" y2="97.63"/><rect class="cls-12" x="10.11" y="95.21" width="131.65" height="9.38"/><polyline class="cls-13" points="16.78 95.21 141.75 95.21 141.75 104.59 10.11 104.59 10.11 95.21 12.3 95.21"/><circle class="cls-4" cx="30.05" cy="97.63" r="0.68"/><circle class="cls-4" cx="14.44" cy="95.24" r="0.68"/><path class="cls-14" d="M72.25.85A48.75,48.75,0,1,0,121,49.6h0A48.84,48.84,0,0,0,72.25.85Zm0,4.43a44,44,0,0,1,30.4,12.19,10.92,10.92,0,0,0-4.79-1.2c-2.88,0-7.66,1.24-7.66,9.53a21.64,21.64,0,0,0,4.21,9.62c2.92,4.74,6.25,10.1,5.4,14.31-1.9,5.63-4.56,13.38-7.13,20.7L80.27,31.87h.84a2.2,2.2,0,0,0,2.22-2.17v0a2.23,2.23,0,0,0-2.22-2.22H61.17A2.25,2.25,0,0,0,59,29.66a2.23,2.23,0,0,0,2.22,2.21h1.64l7,20C68,57.26,65.73,64,63.47,70.43L51,31.87h1.29a2.19,2.19,0,0,0,2.21-2.17v0a2.21,2.21,0,0,0-2.21-2.22H33.92A44.42,44.42,0,0,1,72.25,5.28ZM27.93,49.6a44,44,0,0,1,3.73-17.73h1.95L54,90A44.34,44.34,0,0,1,27.93,49.6ZM72.25,93.91a43.42,43.42,0,0,1-11.83-1.64C62.37,86.82,68,71,72.25,58.68L84.08,92.27A43,43,0,0,1,72.25,93.91ZM90.46,90c3-8.24,9.49-26.63,13.25-37.89a1.45,1.45,0,0,0,.18-.49,3.79,3.79,0,0,0,.18-.66c.57-1.64,1-3.1,1.42-4.3,2.34-7.45,4.56-17.11,2.74-22.78A44.15,44.15,0,0,1,90.46,90Z"/><path class="cls-6" d="M121.2,48.06v1.11a48.75,48.75,0,1,1-97.49,0V48.06a48.76,48.76,0,0,0,97.49,0Z"/><path class="cls-2" d="M23.71,50.78v-1.1a48.75,48.75,0,1,1,97.49,0v1.1a48.76,48.76,0,0,0-97.49,0Z"/><line class="cls-7" x1="42.64" y1="49.81" x2="48.48" y2="66.66"/><line class="cls-7" x1="37.69" y1="35.54" x2="41.6" y2="46.82"/><line class="cls-8" x1="95.67" y1="72.71" x2="89.93" y2="88.64"/><line class="cls-8" x1="66.47" y1="72.3" x2="60.73" y2="88.22"/><line class="cls-8" x1="85.95" y1="52.99" x2="80.88" y2="36.84"/><line class="cls-9" x1="36.23" y1="28.24" x2="49.58" y2="28.24"/><line class="cls-9" x1="63.86" y1="28.24" x2="77.21" y2="28.24"/><line class="cls-9" x1="64.59" y1="35.15" x2="69.36" y2="48.76"/><path class="cls-10" d="M72.25.85A48.75,48.75,0,1,0,121,49.6h0A48.84,48.84,0,0,0,72.25.85Zm0,4.43a44,44,0,0,1,30.4,12.19,10.92,10.92,0,0,0-4.79-1.2c-2.88,0-7.66,1.24-7.66,9.53a21.64,21.64,0,0,0,4.21,9.62c2.92,4.74,6.25,10.1,5.4,14.31-1.9,5.63-4.56,13.38-7.13,20.7L80.27,31.87h.84a2.2,2.2,0,0,0,2.22-2.17v0a2.23,2.23,0,0,0-2.22-2.22H61.17A2.25,2.25,0,0,0,59,29.66a2.23,2.23,0,0,0,2.22,2.21h1.64l7,20C68,57.26,65.73,64,63.47,70.43L51,31.87h1.29a2.19,2.19,0,0,0,2.21-2.17v0a2.21,2.21,0,0,0-2.21-2.22H33.92A44.42,44.42,0,0,1,72.25,5.28ZM43.15,59,54,90a44.22,44.22,0,0,1-22.38-58.1h1.95L37.4,42.65m1,2.82L42,55.86M78.38,76.1l5.7,16.17a43.42,43.42,0,0,1-23.66,0C62.37,86.82,68,71,72.25,58.68l4.4,12.5m38-8.68A44.52,44.52,0,0,1,90.46,90c3-8.24,9.49-26.63,13.25-37.89a1.45,1.45,0,0,0,.18-.49,3.79,3.79,0,0,0,.18-.66c.57-1.64,1-3.1,1.42-4.3,2.35-7.45,4.56-17.11,2.74-22.78a44.06,44.06,0,0,1,7.56,34"/><circle class="cls-2" cx="67.64" cy="39.45" r="0.94"/><circle class="cls-2" cx="68.79" cy="41.14" r="0.18"/><circle class="cls-2" cx="66.81" cy="34.73" r="0.44"/><circle class="cls-2" cx="67.93" cy="36.58" r="0.21"/><circle class="cls-2" cx="69.81" cy="37.78" r="0.47"/><circle class="cls-2" cx="69.21" cy="44.43" r="0.81"/><circle class="cls-2" cx="69.96" cy="42" r="0.42"/><circle class="cls-2" cx="72" cy="46.96" r="0.42"/><circle class="cls-2" cx="70.46" cy="48.6" r="0.44"/><circle class="cls-2" cx="64.7" cy="32.25" r="0.31"/><circle class="cls-2" cx="67.64" cy="29.57" r="0.86"/><circle class="cls-2" cx="71.6" cy="31.45" r="0.34"/><circle class="cls-2" cx="73.66" cy="29.86" r="0.68"/><circle class="cls-6" cx="92.95" cy="77.46" r="1.04"/><circle class="cls-6" cx="89.42" cy="82.81" r="0.74"/><circle class="cls-6" cx="90.44" cy="80.08" r="0.27"/><circle class="cls-6" cx="90.28" cy="73.12" r="0.66"/><circle class="cls-6" cx="88.72" cy="87.98" r="0.12"/><circle class="cls-6" cx="88.8" cy="86.25" r="0.27"/><rect class="cls-15" x="14.73" y="61.14" width="36.96" height="11.19" rx="1.44"/><rect class="cls-15" x="14.73" y="72.49" width="36.96" height="11.19" rx="1.44"/><rect class="cls-15" x="14.73" y="83.68" width="36.96" height="11.19" rx="1.44"/><path class="cls-16" d="M14.49,70.73V62.42"/><path class="cls-16" d="M47.83,61H50a1.43,1.43,0,0,1,1.44,1.44h0v8.31A1.44,1.44,0,0,1,50,72.17H35.16"/><path class="cls-16" d="M38.76,72.33H50a1.43,1.43,0,0,1,1.44,1.44v8.3A1.43,1.43,0,0,1,50,83.51H15.93a1.43,1.43,0,0,1-1.44-1.44v-8.3"/><rect class="cls-16" x="14.49" y="83.51" width="36.96" height="11.19" rx="1.44"/><rect class="cls-17" x="10" y="61.14" width="36.96" height="11.19" rx="1.44"/><rect class="cls-17" x="10" y="72.49" width="36.96" height="11.19" rx="1.44"/><rect class="cls-17" x="10" y="83.68" width="36.96" height="11.19" rx="1.44"/><path class="cls-18" d="M45.52,94.86H11.44A1.5,1.5,0,0,1,10,93.36H44.29a1.27,1.27,0,0,1,1.11-1.43h.12V83.68A1.43,1.43,0,0,1,47,85.11h0v8.31A1.43,1.43,0,0,1,45.52,94.86Z"/><path class="cls-18" d="M45.52,83.6H11.44A1.5,1.5,0,0,1,10,82.09H44.29a1.28,1.28,0,0,1,1.11-1.43h.12V72.41A1.44,1.44,0,0,1,47,73.85h0v8.31A1.43,1.43,0,0,1,45.52,83.6Z"/><path class="cls-18" d="M45.52,72H11.44A1.51,1.51,0,0,1,10,70.52H44.29a1.28,1.28,0,0,1,1.11-1.43h.12V60.84A1.43,1.43,0,0,1,47,62.28h0v8.31A1.44,1.44,0,0,1,45.52,72Z"/><line class="cls-16" x1="27.71" y1="94.94" x2="27.71" y2="99.81"/><circle class="cls-16" cx="27.59" cy="101.75" r="1.82"/><line class="cls-19" x1="34.61" y1="77.74" x2="39.47" y2="77.74"/><circle class="cls-2" cx="41.42" cy="77.86" r="1.82"/><line class="cls-19" x1="34.61" y1="89.35" x2="39.47" y2="89.35"/><circle class="cls-2" cx="41.42" cy="89.47" r="1.82"/><line class="cls-19" x1="34.61" y1="66.49" x2="39.47" y2="66.49"/><circle class="cls-2" cx="41.42" cy="66.61" r="1.82"/><line class="cls-20" x1="15.72" y1="63.41" x2="13.85" y2="69.9"/><line class="cls-20" x1="18.49" y1="63.41" x2="16.63" y2="69.9"/><line class="cls-20" x1="24.04" y1="63.41" x2="22.18" y2="69.9"/><line class="cls-20" x1="26.82" y1="63.41" x2="24.96" y2="69.9"/><line class="cls-20" x1="21.27" y1="63.41" x2="19.4" y2="69.9"/><line class="cls-20" x1="15.72" y1="74.6" x2="13.85" y2="81.08"/><line class="cls-20" x1="18.49" y1="74.6" x2="16.63" y2="81.08"/><line class="cls-20" x1="24.04" y1="74.6" x2="22.18" y2="81.08"/><line class="cls-20" x1="26.82" y1="74.6" x2="24.96" y2="81.08"/><line class="cls-20" x1="21.27" y1="74.6" x2="19.4" y2="81.08"/><line class="cls-20" x1="15.72" y1="85.54" x2="13.85" y2="92.02"/><line class="cls-20" x1="18.49" y1="85.54" x2="16.63" y2="92.02"/><line class="cls-20" x1="24.04" y1="85.54" x2="22.18" y2="92.02"/><line class="cls-20" x1="26.82" y1="85.54" x2="24.96" y2="92.02"/><line class="cls-20" x1="21.27" y1="85.54" x2="19.4" y2="92.02"/><rect class="cls-2" x="13.2" y="61.3" width="22.7" height="1.13"/><rect class="cls-2" x="13.2" y="72.41" width="22.7" height="1.13"/><rect class="cls-2" x="10.2" y="83.59" width="22.7" height="1.13"/><path class="cls-16" d="M10,65.67V62.42A1.43,1.43,0,0,1,11.44,61h7.9"/><path class="cls-16" d="M22.08,61H45.52A1.43,1.43,0,0,1,47,62.42h0v8.31a1.44,1.44,0,0,1-1.44,1.44H11.44A1.44,1.44,0,0,1,10,70.73V67.55"/><path class="cls-16" d="M10,76.41V73.77a1.43,1.43,0,0,1,1.44-1.44H45.52A1.43,1.43,0,0,1,47,73.77h0v8.3a1.43,1.43,0,0,1-1.44,1.44H11.44A1.43,1.43,0,0,1,10,82.07V78.81"/><rect class="cls-16" x="10" y="83.51" width="36.96" height="11.19" rx="1.44"/><line class="cls-16" x1="34.4" y1="77.74" x2="39.26" y2="77.74"/><circle class="cls-16" cx="41.21" cy="77.86" r="1.82"/><line class="cls-16" x1="34.4" y1="89.35" x2="39.26" y2="89.35"/><circle class="cls-16" cx="41.21" cy="89.47" r="1.82"/><line class="cls-16" x1="34.4" y1="66.49" x2="39.26" y2="66.49"/><circle class="cls-16" cx="41.21" cy="66.61" r="1.82"/><rect class="cls-12" x="1.77" y="95.21" width="134.41" height="9.38"/><rect class="cls-21" x="1.77" y="95.21" width="134.41" height="2.25"/><rect class="cls-22" x="1.77" y="102.25" width="134.41" height="2.25"/><line class="cls-11" x1="9.2" y1="97.63" x2="19.52" y2="97.63"/><path class="cls-23" d="M1.87,98.7a175.83,175.83,0,0,0,33.68,2c16-.94,26.59-2.66,42.7-2.66,18.93,0,32.59,2.66,57.77,3"/><path class="cls-23" d="M135.71,98.73c-25.19.31-38.85,3-57.77,3a155.8,155.8,0,0,1-20.7-1.63A213,213,0,0,0,2,100.74H2"/><polyline class="cls-13" points="8.44 95.21 136.17 95.21 136.17 104.59 1.77 104.59 1.77 95.21 3.96 95.21"/><circle class="cls-4" cx="21.71" cy="97.63" r="0.68"/><circle class="cls-4" cx="6.1" cy="95.24" r="0.68"/><g id="Layer_2-3" data-name="Layer 2"><g id="Layer_1-2" data-name="Layer 1-2"><rect class="cls-24" x="308.27" y="53.14" width="89.78" height="5.27" transform="translate(148.26 348.78) rotate(-64.01)"/><path class="cls-25" d="M346.7,66.22h0a.5.5,0,0,1-.35-.9l7.29-15.07a.59.59,0,0,1,.75,0,.54.54,0,0,1,0,.75L347,66.37A.61.61,0,0,1,346.7,66.22Z"/><path class="cls-25" d="M342.94,74h0a.55.55,0,0,1-.26-.74h0l2.76-5.73a.6.6,0,0,1,.75-.3.54.54,0,0,1,0,.75l-2.76,5.78A.56.56,0,0,1,342.94,74Z"/><rect class="cls-24" x="311.18" y="54.57" width="89.78" height="5.27" transform="translate(148.6 352.2) rotate(-64.01)"/><rect class="cls-26" x="312.37" y="56.51" width="89.78" height="2.61" transform="translate(148.73 353.61) rotate(-64.01)"/><path class="cls-4" d="M338.77,99.23h-.25l-4.73-2.31a.5.5,0,0,1-.3-.3.58.58,0,0,1,0-.41l39.39-80.73a.5.5,0,0,1,.55-.44l.15,0,4.77,2.31a.48.48,0,0,1,.26.3.55.55,0,0,1,0,.4L339.27,98.93A.56.56,0,0,1,338.77,99.23Zm-4-3.12L338.52,98l38.83-79.72-3.77-1.81Z"/><polygon class="cls-24" points="365.19 32.61 360.92 35.78 340.38 7.8 344.6 4.63 365.19 32.61"/><polygon class="cls-27" points="365.19 32.61 363.08 34.17 342.49 6.19 344.6 4.63 365.19 32.61"/><path class="cls-4" d="M360.92,36.33h0a.43.43,0,0,1-.35,0L340,8.35a.5.5,0,0,1,0-.71l0,0,4.27-3.11a.41.41,0,0,1,.4,0,.56.56,0,0,1,.36,0l20.54,28a.51.51,0,0,1,0,.71l0,0-4.12,3A.55.55,0,0,1,360.92,36.33ZM341.33,7.9,361.42,35l3.42-2.51L344.75,5.43Z"/><path class="cls-24" d="M347.26,3.93h0a3.51,3.51,0,0,1-.75,4.91.91.91,0,0,1-.16.11l-6.18,4.27-3.86-6,6-4.27a3.52,3.52,0,0,1,4.89.91Z"/><path class="cls-27" d="M346.35,8.9l-6.23,4.27L338.67,11l6-4.17a3.42,3.42,0,0,0,1.3-4,3.42,3.42,0,0,1,1.31,1.11A3.66,3.66,0,0,1,346.35,8.9Z"/><path class="cls-4" d="M340.17,13.47a.36.36,0,0,1-.35,0l-4.07-5.93a.39.39,0,0,1,0-.3.32.32,0,0,1,0-.3l3-2a.4.4,0,0,1,.56,0l0,0a.45.45,0,0,1,0,.64v0l-2.56,1.75,3.51,5,6.08-4a3.12,3.12,0,0,0-3.51-5l-1.51.91a.45.45,0,0,1-.64,0h0a.46.46,0,0,1,0-.64h0l1.45-1A4,4,0,1,1,346.7,9.2h0l-6.22,4.27Z"/><rect class="cls-26" x="309.51" y="55.1" width="89.78" height="2.61" transform="translate(148.4 350.25) rotate(-64.01)"/><path class="cls-4" d="M335.9,97.82h-.25l-4.72-2.36a.5.5,0,0,1,0-.7l6.83-14.37a.57.57,0,0,1,.63-.47.56.56,0,0,1,.47.63.61.61,0,0,1-.14.29l-6.84,14.07,3.77,1.86,38.84-79.93-3.77-1.76L357.2,42.81a.48.48,0,1,1-.75-.5L370,14.08a.45.45,0,0,1,.3-.31.41.41,0,0,1,.4,0l4.72,2.31a.5.5,0,0,1,.27.66s0,0,0,.05L336.31,97.52a.47.47,0,0,1-.31.3Z"/><path class="cls-4" d="M340.27,76.77h0a.55.55,0,0,1-.25-.7l14.37-29.39a.5.5,0,0,1,.7,0,.51.51,0,0,1,.28.66.08.08,0,0,0,0,0L341,76.77A.56.56,0,0,1,340.27,76.77Z"/><circle class="cls-24" cx="364.29" cy="35.28" r="8.09"/><circle class="cls-24" cx="364.29" cy="35.28" r="4.92"/><path class="cls-28" d="M364.29,43.06a7.74,7.74,0,0,1-5.63-12.91A7.62,7.62,0,0,1,364,27.69h0a7.79,7.79,0,0,1,0,15.52Zm0-14.52a6.72,6.72,0,0,0-5,2.11,6.78,6.78,0,1,0,9.7-.5A7,7,0,0,0,364.29,28.54Z"/><path class="cls-26" d="M361.12,38.64a4.67,4.67,0,1,1,6.61,0l0,0A4.67,4.67,0,0,1,361.12,38.64Zm5.33-5.83a3.37,3.37,0,1,0,0,5,3.42,3.42,0,0,0,.19-4.83Z"/><path class="cls-4" d="M364.29,40.55a5,5,0,0,1-5-5,5.08,5.08,0,0,1,1.46-3.82,5.33,5.33,0,0,1,3.42-1.56h0a5,5,0,0,1,3.61,1.46,5.28,5.28,0,0,1,1.66,3.67A5,5,0,0,1,368,39a5,5,0,0,1-3.67,1.66Zm0-10h0a4.58,4.58,0,0,0-3,7.94,4.62,4.62,0,0,0,3.17,1.26h0a4.67,4.67,0,0,0,3.21-1.46h0a4.55,4.55,0,0,0,1.26-3.06A4.45,4.45,0,0,0,367.45,32a4.39,4.39,0,0,0-3.16-1.26Z"/><path class="cls-4" d="M364.29,43.92a8.45,8.45,0,0,1-5.93-2.36A8.64,8.64,0,0,1,358,29.35a8.42,8.42,0,0,1,6-2.66h0a8.64,8.64,0,0,1,8.89,8.38v.11a8.55,8.55,0,0,1-2.36,6.17,8.35,8.35,0,0,1-6,2.72Zm0-16.18h0a7.41,7.41,0,0,0-5.48,2.41,7.59,7.59,0,0,0,.3,10.7,7.82,7.82,0,0,0,5.38,2.06,7.35,7.35,0,0,0,5-2.36A7.54,7.54,0,0,0,364,27.79Z"/><path class="cls-29" d="M314.9,13.32h0A10.06,10.06,0,0,1,329.05,12l0,0h0A10,10,0,0,1,330.5,26.1l0,0h0a10.05,10.05,0,0,1-14.14,1.47l-.13-.11h0a10.05,10.05,0,0,1-1.32-14.15Z"/><path class="cls-4" d="M322.89,30.15a10.48,10.48,0,1,1,6.68-18.54,10.07,10.07,0,0,1,2.42,3v.5a.36.36,0,0,1-.5,0h0a10.5,10.5,0,0,0-2.26-2.71,9.69,9.69,0,0,0-13.61,1.3,10,10,0,0,0-2.21,7.09,9.46,9.46,0,0,0,3.51,6.53,9.65,9.65,0,0,0,15.48-10,.39.39,0,0,1,.3-.45.35.35,0,0,1,.44.22v0a10.43,10.43,0,0,1-10.05,13.11Z"/><ellipse class="cls-2" cx="322.58" cy="19.36" rx="6.28" ry="6.08" transform="translate(102.54 256.03) rotate(-50.52)"/><circle class="cls-4" cx="355.6" cy="44.62" r="0.55"/><circle class="cls-4" cx="339.17" cy="78.48" r="0.55"/><path class="cls-24" d="M313.9,7.49a3.56,3.56,0,0,1,.71-5,3.48,3.48,0,0,1,.75-.43,19.39,19.39,0,0,1,22.05,30.69,3.56,3.56,0,0,1-5,.26,3.52,3.52,0,0,1-.54-.61Z"/><path class="cls-27" d="M337.36,33a3.66,3.66,0,0,1-5.18.21,3.34,3.34,0,0,1-.5-.56l-1.45-2.06A19.37,19.37,0,0,0,330,2.22a19.17,19.17,0,0,1,8.54,6.63A19.49,19.49,0,0,1,337.36,33Z"/><path class="cls-4" d="M335,34.42h0a4.21,4.21,0,0,1-3.17-1.71L320.28,16.64a.47.47,0,1,1,.75-.56l11.56,16.08a3.13,3.13,0,0,0,2.46,1.31,2.62,2.62,0,0,0,2.41-1A18.95,18.95,0,0,0,324.2,1.06a.49.49,0,0,1-.45-.5A.4.4,0,0,1,324,0a.39.39,0,0,1,.24,0h0a20.08,20.08,0,0,1,13.71,33A4.06,4.06,0,0,1,335,34.42Z"/><path class="cls-4" d="M317.72,13a.43.43,0,0,1-.35,0L313.7,8a4.06,4.06,0,0,1-.6-3.57,3.83,3.83,0,0,1,2.26-2.56A19.34,19.34,0,0,1,320.08.51a.41.41,0,0,1,.49.29.41.41,0,0,1,0,.11.39.39,0,0,1-.29.49l-.06,0a19.81,19.81,0,0,0-4.52,1.3,2.92,2.92,0,0,0-1.71,2,3.16,3.16,0,0,0,.45,2.76l3.67,5a.45.45,0,0,1,0,.64h0Z"/><circle class="cls-27" cx="333.94" cy="23.97" r="1"/><circle class="cls-27" cx="334.9" cy="21.91" r="0.25"/><circle class="cls-27" cx="334.6" cy="20.15" r="0.4"/><circle class="cls-27" cx="332.64" cy="26.79" r="0.55"/><circle class="cls-27" cx="333.99" cy="25.83" r="0.25"/><circle class="cls-27" cx="335.05" cy="18.3" r="0.65"/><circle class="cls-27" cx="335.65" cy="21.01" r="0.45"/><circle class="cls-27" cx="342.79" cy="7.95" r="0.65"/><circle class="cls-27" cx="344.04" cy="6.94" r="0.2"/><circle class="cls-27" cx="344.44" cy="5.79" r="0.25"/><circle class="cls-27" cx="341.08" cy="9.25" r="0.4"/><circle class="cls-27" cx="342.23" cy="9.05" r="0.15"/><circle class="cls-27" cx="345.35" cy="4.78" r="0.45"/><circle class="cls-27" cx="344.8" cy="6.64" r="0.3"/><circle class="cls-4" cx="319.22" cy="14.43" r="0.55"/><circle class="cls-4" cx="322.24" cy="0.56" r="0.55"/><rect class="cls-30" x="326.96" y="91.19" width="22" height="12.41"/><path class="cls-4" d="M348.66,104h-22a.4.4,0,0,1-.4-.4h0V91.19a.35.35,0,0,1,.29-.4.21.21,0,0,1,.11,0h22a.35.35,0,0,1,.41.29V103.6a.4.4,0,0,1-.41.4Zm-21.55-.8h21.2V91.59h-21.2Z"/><rect class="cls-31" x="325.05" y="91.19" width="20.9" height="12.41"/><rect class="cls-32" x="266.98" y="87.57" width="9.7" height="8.64"/><path class="cls-4" d="M276.67,96.62H267a.35.35,0,0,1-.35-.36V87.57a.35.35,0,0,1,.35-.35h9.69a.35.35,0,0,1,.35.35v8.69a.35.35,0,0,1-.35.36Zm-9.34-.76h8.94V87.92h-8.94Z"/><rect class="cls-32" x="267.88" y="87.57" width="9.7" height="8.64"/><path class="cls-4" d="M277.58,96.62h-9.7a.36.36,0,0,1-.35-.36V87.57a.35.35,0,0,1,.35-.35h9.7a.35.35,0,0,1,.35.35v8.69A.36.36,0,0,1,277.58,96.62Zm-9.35-.76h8.95V87.92h-8.95Z"/><rect class="cls-32" x="188.51" y="87.57" width="9.7" height="8.64"/><path class="cls-4" d="M198.15,96.62h-9.64a.41.41,0,0,1-.41-.36V87.57a.41.41,0,0,1,.41-.35h9.64a.39.39,0,0,1,.4.35v8.69A.39.39,0,0,1,198.15,96.62Zm-9.29-.76h8.94V87.92h-8.94Z"/><path class="cls-4" d="M243.62,99.28h-20.1a.35.35,0,0,1-.35-.35.35.35,0,0,1,.35-.35h20.1a.35.35,0,0,1,.35.35A.35.35,0,0,1,243.62,99.28Z"/><path class="cls-33" d="M168.16,52.86V4.58a3.32,3.32,0,0,1,3.26-3.32H294.86a3.32,3.32,0,0,1,3.26,3.32V85.41a3.26,3.26,0,0,1-3.26,3.27H171.42a3.26,3.26,0,0,1-3.26-3.27V72.55"/><path class="cls-4" d="M294.86,89H171.42a3.86,3.86,0,0,1-3.81-3.62V72.55a.5.5,0,0,1,.44-.55h.11a.55.55,0,0,1,.55.55V85.41a2.72,2.72,0,0,0,2.71,2.72H294.86a2.71,2.71,0,0,0,2.71-2.72h0V4.58a2.71,2.71,0,0,0-2.71-2.71H281a.6.6,0,0,1-.6-.61h0A.55.55,0,0,1,281,.71h13.92a3.93,3.93,0,0,1,3.87,3.87V85.41A3.92,3.92,0,0,1,294.86,89Z"/><path class="cls-4" d="M168.16,53.46a.56.56,0,0,1-.56-.55s0,0,0,0V4.58a.5.5,0,0,1,.44-.55.21.21,0,0,1,.11,0,.55.55,0,0,1,.55.55h0V52.86a.55.55,0,0,1-.5.6Z"/><path class="cls-4" d="M355.08,104.2H306.56a.55.55,0,0,1-.55-.55.55.55,0,0,1,.55-.55h48.52a.55.55,0,1,1,0,1.1Z"/><rect class="cls-34" x="184.89" y="90.64" width="9.7" height="5.58"/><rect class="cls-34" x="184.89" y="90.64" width="9.7" height="5.58"/><rect class="cls-35" x="184.89" y="89.03" width="9.7" height="2.36"/><path class="cls-4" d="M194.53,96.62h-9.64a.39.39,0,0,1-.4-.36V87.57a.39.39,0,0,1,.4-.35h9.64a.41.41,0,0,1,.41.35v8.69A.41.41,0,0,1,194.53,96.62Zm-9.29-.76h8.94V87.92h-8.94Z"/><rect class="cls-34" x="263.91" y="90.64" width="9.7" height="5.58"/><rect class="cls-34" x="263.91" y="90.64" width="9.7" height="5.58"/><rect class="cls-35" x="263.91" y="89.03" width="9.7" height="2.36"/><path class="cls-4" d="M273.61,96.62h-9.7a.36.36,0,0,1-.35-.36V87.57a.35.35,0,0,1,.35-.35h9.7a.35.35,0,0,1,.35.35v8.69A.36.36,0,0,1,273.61,96.62Zm-9.35-.76h9V87.92h-9Z"/><rect class="cls-34" x="163.34" y="1.11" width="130.02" height="87.16" rx="3.32"/><path class="cls-33" d="M293.35,79.08V85A3.32,3.32,0,0,1,290,88.28H166.65A3.32,3.32,0,0,1,163.34,85V79.08a3.26,3.26,0,0,0,3.21,3.32H290a3.26,3.26,0,0,0,3.31-3.22Z"/><path class="cls-4" d="M290.34,89H166.9a3.86,3.86,0,0,1-3.81-3.62V72.55a.55.55,0,0,1,.55-.55.55.55,0,0,1,.55.55V85.41a2.72,2.72,0,0,0,2.71,2.72H290.34a2.71,2.71,0,0,0,2.71-2.72h0V4.58a2.71,2.71,0,0,0-2.71-2.71H196.09a.56.56,0,0,1-.45-.61.55.55,0,0,1,.55-.55h94.15a3.93,3.93,0,0,1,3.87,3.87V85.41A3.92,3.92,0,0,1,290.34,89Z"/><path class="cls-4" d="M163.64,53.46a.55.55,0,0,1-.56-.55.09.09,0,0,1,0,0V4.58A3.87,3.87,0,0,1,166.9.71h10a.56.56,0,0,1,.6.5v.05a.55.55,0,0,1-.5.61H167a2.71,2.71,0,0,0-2.71,2.71V52.86a.55.55,0,0,1-.5.6Z"/><path class="cls-4" d="M163.64,66.77a.54.54,0,0,1-.56-.55.11.11,0,0,1,0,0V58.59a.55.55,0,0,1,.55-.56.56.56,0,0,1,.55.56v7.58a.55.55,0,0,1-.5.6Z"/><rect class="cls-2" x="170.32" y="7.24" width="117.36" height="75.26"/><rect class="cls-30" x="170.32" y="7.24" width="117.36" height="3.16"/><path class="cls-36" d="M248.94,53.91h-70c-.4,0-.3-.4-.3-.8l-.45-39h70.78Z"/><polygon class="cls-37" points="248.94 53.91 178.91 53.96 178.71 51.6 248.94 51.5 248.94 53.91"/><polygon class="cls-37" points="248.94 15.93 178.91 15.98 178.71 14.03 248.94 13.97 248.94 15.93"/><rect class="cls-38" x="257.33" y="13.57" width="14.52" height="8.94"/><rect class="cls-38" x="257.33" y="35.93" width="14.52" height="8.94"/><rect class="cls-38" x="257.33" y="56.63" width="14.52" height="8.94"/><path class="cls-4" d="M276.87,25.63H257.13a.35.35,0,0,1-.38-.32.29.29,0,0,1,0-.18.36.36,0,0,1,.35,0h19.74a.4.4,0,0,1,.36.4A.37.37,0,0,1,276.87,25.63Z"/><path class="cls-4" d="M267.28,27.79h-10a.35.35,0,0,1-.35-.35.35.35,0,0,1,.35-.35h10a.35.35,0,0,1,.35.35A.35.35,0,0,1,267.28,27.79Z"/><path class="cls-4" d="M199,59.39H179.21a.35.35,0,0,1-.35-.35.35.35,0,0,1,.35-.35H199a.35.35,0,0,1,.35.35A.35.35,0,0,1,199,59.39Z"/><path class="cls-4" d="M214.93,63.26H179.21a.35.35,0,0,1-.35-.35.41.41,0,0,1,.35-.41h35.72a.41.41,0,0,1,.35.41A.35.35,0,0,1,214.93,63.26Z"/><path class="cls-4" d="M214.93,67.13H179.21a.41.41,0,0,1-.35-.41.35.35,0,0,1,.35-.35h35.72a.35.35,0,0,1,.35.35A.41.41,0,0,1,214.93,67.13Z"/><path class="cls-4" d="M271.65,22.87H257.13a.35.35,0,0,1-.35-.35V13.57a.35.35,0,0,1,.35-.35h14.52a.35.35,0,0,1,.35.35v9A.35.35,0,0,1,271.65,22.87Zm-14.17-.71H271.3V13.92H257.48Z"/><path class="cls-4" d="M271.65,45.22H257.13a.35.35,0,0,1-.35-.35V35.93a.35.35,0,0,1,.35-.35h14.52a.35.35,0,0,1,.35.35v8.94A.35.35,0,0,1,271.65,45.22Zm-14.17-.7H271.3V36.28H257.48Z"/><path class="cls-4" d="M271.65,65.92H257.13a.4.4,0,0,1-.35-.4V56.63a.41.41,0,0,1,.35-.41h14.52a.41.41,0,0,1,.35.41v8.69a.4.4,0,0,1-.15.55A.46.46,0,0,1,271.65,65.92Zm-14.17-.6H271.3V57H257.48Z"/><polygon class="cls-38" points="222.47 34.42 215.38 38.49 208.3 42.56 208.3 34.42 208.3 26.28 215.38 30.35 222.47 34.42"/><polygon class="cls-2" points="266.73 18.14 264.72 19.3 262.76 20.46 262.76 18.14 262.76 15.83 264.72 16.99 266.73 18.14"/><polygon class="cls-2" points="266.73 40.35 264.72 41.51 262.76 42.66 262.76 40.35 262.76 38.04 264.72 39.19 266.73 40.35"/><polygon class="cls-2" points="266.73 61.35 264.72 62.51 262.76 63.66 262.76 61.35 262.76 59.04 264.72 60.19 266.73 61.35"/><path class="cls-4" d="M208,42.66h0a.27.27,0,0,1,0-.3V26a.24.24,0,0,1,0-.3m.35,0,14.12,8.14a.39.39,0,0,1,0,.3.39.39,0,0,1,0,.3L208.2,42.61Zm.05.9V41.66l13-7.54Z"/><rect class="cls-39" x="160.47" y="94.66" width="140.82" height="9.8" rx="0.8"/><path class="cls-4" d="M300.44,104.45H161.28a1.45,1.45,0,0,1-1.41-1.4V94.86a1.46,1.46,0,0,1,1.41-1.41H300.44a1.41,1.41,0,0,1,1.4,1.41v8.19a1.4,1.4,0,0,1-1.4,1.4ZM161.28,94.66h0v8.19H300.44v-8h0Z"/><rect class="cls-39" x="161.83" y="94.66" width="140.82" height="9.8" rx="0.8"/><path class="cls-4" d="M301.79,104.45H162.63a1.4,1.4,0,0,1-1.4-1.4h0V94.86a1.41,1.41,0,0,1,1.4-1.41H301.79a1.41,1.41,0,0,1,1.41,1.41v8.19a1.41,1.41,0,0,1-1.41,1.4ZM162.63,94.66h0v8.19H301.79v-8h0Z"/><path class="cls-2" d="M178.21,99.23h-6.53a.51.51,0,0,1-.51-.5h0a.57.57,0,0,1,.51-.51h6.53a.56.56,0,0,1,.5.51.51.51,0,0,1-.5.5Z"/><circle class="cls-2" cx="168.21" cy="98.73" r="1.16"/><rect class="cls-31" x="156.4" y="94.66" width="140.82" height="9.24" rx="0.8"/><rect class="cls-30" x="156.4" y="99.53" width="140.82" height="4.02" rx="0.5"/><path class="cls-4" d="M296.42,104.45H157.21a1.45,1.45,0,0,1-1.41-1.4V94.86a1.46,1.46,0,0,1,1.41-1.41H296.42a1.41,1.41,0,0,1,1.35,1.41v8.19A1.4,1.4,0,0,1,296.42,104.45ZM157.21,94.66h0v8.19H296.42v-8h0Z"/><path class="cls-2" d="M173,99.23H166.5a.5.5,0,0,1-.5-.5h0a.56.56,0,0,1,.5-.51H173a.5.5,0,0,1,.5.51h0a.45.45,0,0,1-.39.5Z"/><circle class="cls-2" cx="163.04" cy="98.73" r="1.16"/><rect class="cls-40" x="170.87" y="71.1" width="116.6" height="11.45"/><rect class="cls-41" x="170.87" y="82.05" width="116.6" height="0.45"/><path class="cls-4" d="M287.32,71.3H171.07a.36.36,0,0,1,0-.71H287.32a.36.36,0,1,1,0,.71Z"/><path class="cls-4" d="M170.52,44.07a.56.56,0,0,1-.55-.56V32a.58.58,0,0,1,1.15,0V43.51a.55.55,0,0,1-.55.56Z"/><path class="cls-4" d="M287.68,83.05H170.52a.55.55,0,0,1-.55-.55h0V48.74a.58.58,0,0,1,1.15-.05V82h116V7.8H170.92V27.54a.59.59,0,0,1-.4.6.55.55,0,0,1-.55-.55V7.44a.55.55,0,0,1,.31-.71.51.51,0,0,1,.24,0H287.68a.55.55,0,0,1,.55.55h0V82.6A.54.54,0,0,1,287.68,83.05Z"/><polygon class="cls-29" points="298.18 56.02 300.29 49.84 305.46 53.21 299.28 37.03 292 39.85 298.18 56.02"/><polygon class="cls-42" points="294.36 45.93 298.38 45.52 301.79 43.62 299.28 37.03 292 39.85 294.36 45.93"/><path class="cls-4" d="M298.23,56.43a.45.45,0,0,1-.41-.31L291.64,40.2a.36.36,0,0,1,0-.5h0l7.49-3a.35.35,0,0,1,.5,0h0l6.23,16.18a.41.41,0,0,1,0,.45.35.35,0,0,1-.45,0l-5-3.06-1.91,5.62a.54.54,0,0,1-.36.3ZM292.5,40.2,298.17,55l1.71-5a.57.57,0,0,1,0-.26.32.32,0,0,1,.35,0l4.17,2.67L299,37.54Z"/><polygon class="cls-29" points="288.68 56.02 286.67 50.4 281.4 53.21 287.63 37.03 294.91 39.85 288.68 56.02"/><polygon class="cls-42" points="292.7 45.52 288.53 45.37 285.31 43.01 287.63 37.03 294.91 39.85 292.7 45.52"/><path class="cls-4" d="M288.68,56.43h0a.46.46,0,0,1-.35-.31l-1.86-5-5,2.56a.39.39,0,0,1-.46,0,.51.51,0,0,1,0-.45l1.16-3.06a.44.44,0,0,1,.55,0,.35.35,0,0,1,0,.49h0l-.8,2.06,4.32-2.31a.43.43,0,0,1,.35,0h0L288.28,55l6.13-14.82-6.58-2.51-2.47,6.58a.47.47,0,0,1-.55,0,.35.35,0,0,1,0-.5h0l2.61-6.94a.57.57,0,0,1,.26,0h.3l7.28,2.77a.35.35,0,0,1,0,.49h0l-6.18,16A.45.45,0,0,1,288.68,56.43Z"/><path class="cls-4" d="M283.35,48.54h0a.36.36,0,0,1,0-.5h0l.86-2.26a.35.35,0,0,1,.5,0h0a.39.39,0,0,1,.25.5l-.9,2.21a.4.4,0,0,1-.53.2A.65.65,0,0,1,283.35,48.54Z"/><path class="cls-42" d="M295.31,43.62h0a10.05,10.05,0,0,1-10.05-10h0a10.05,10.05,0,0,1,10.05-10h0a10.05,10.05,0,0,1,10.05,10.05h0A10.05,10.05,0,0,1,295.31,43.62Z"/><path class="cls-4" d="M295.31,44a10.75,10.75,0,1,1,.2,0Zm0-20.45a10.05,10.05,0,1,0,10.05,10v-.24A10.06,10.06,0,0,0,295.31,23.57Z"/><path class="cls-29" d="M293.05,43.62h0a10.05,10.05,0,0,1-10.05-10h0a10.05,10.05,0,0,1,10.05-10h0A10.05,10.05,0,0,1,303.1,33.57h0A10.05,10.05,0,0,1,293.05,43.62Z"/><path class="cls-4" d="M292.7,44a10.65,10.65,0,0,1-10.6-10.65,10.81,10.81,0,0,1,.7-3.82.41.41,0,0,1,.76.3,9.21,9.21,0,0,0-.66,3.52,10,10,0,1,0,1.86-5.73.44.44,0,0,1-.55,0,.41.41,0,0,1,0-.57l0,0a10.77,10.77,0,0,1,8.59-4.37,10.65,10.65,0,1,1,1.46,21.25,11.85,11.85,0,0,1-1.46,0Z"/><path class="cls-2" d="M285.52,29.2h0a.4.4,0,0,1,0-.56,8.37,8.37,0,0,1,2.26-2.41.47.47,0,0,1,.55,0,.36.36,0,0,1,.06.5l-.06.06a7.81,7.81,0,0,0-2,2.16.42.42,0,0,1-.28.52.41.41,0,0,1-.52-.27Z"/><circle class="cls-2" cx="288.63" cy="25.93" r="0.4"/><path class="cls-2" d="M318.27,26.28h0A8.18,8.18,0,0,1,316,23.82v-.55a.39.39,0,0,1,.55,0,7.33,7.33,0,0,0,2,2.21.56.56,0,0,1-.3.8Z"/><circle class="cls-2" cx="315.66" cy="22.57" r="0.4"/><circle class="cls-2" cx="286.07" cy="44.97" r="0.4"/><path class="cls-2" d="M285.11,47.94h0a.46.46,0,0,1-.25-.51l.55-1.55a.4.4,0,0,1,.56,0,.34.34,0,0,1,0,.49h0l-.56,1.51A.44.44,0,0,1,285.11,47.94Z"/><path class="cls-4" d="M191.42,1.77h-10a.56.56,0,0,1-.55-.56.55.55,0,0,1,.55-.55h10.1a.56.56,0,0,1,.6.5v.05a.56.56,0,0,1-.54.57Z"/><path class="cls-4" d="M166,9.2h0a.34.34,0,0,1-.45-.2.36.36,0,0,1,0-.25h0l1.1-5s0-.31.4,0a.3.3,0,0,1,.32.28.49.49,0,0,1,0,.12l-1.11,5A.28.28,0,0,1,166,9.2Z"/><path class="cls-4" d="M168.16,6.34h0a.41.41,0,0,1-.3-.45h0l.45-2.77a.41.41,0,0,1,.52-.23.37.37,0,0,1,.23.23l-.6,2.77a.3.3,0,0,1-.1.41A.34.34,0,0,1,168.16,6.34Z"/><path class="cls-4" d="M181.27,79.18a2.61,2.61,0,1,1-1.43-5,2.67,2.67,0,0,1,1.43,0,2.61,2.61,0,0,1,0,5Zm0-4.52a1.91,1.91,0,1,0,1.91,1.91,1.92,1.92,0,0,0-1.91-1.91Z"/><ellipse class="cls-2" cx="292.8" cy="33.67" rx="6.38" ry="6.18"/><path class="cls-4" d="M233.62,99.63h-20.1a.35.35,0,0,1-.35-.35.35.35,0,0,1,.35-.35h20.1a.35.35,0,1,1,0,.7Z"/><path class="cls-4" d="M225.48,4.38h-3.67a.35.35,0,0,1-.35-.35.35.35,0,0,1,.35-.35h3.67a.34.34,0,0,1,.35.35.35.35,0,0,1-.35.35Z"/><path class="cls-4" d="M219.85,4.38h-7.13a.4.4,0,0,1-.4-.35.39.39,0,0,1,.4-.35h7.13a.35.35,0,0,1,.36.35A.36.36,0,0,1,219.85,4.38Z"/><path class="cls-4" d="M192.42,85.87h-3.71a.36.36,0,0,1-.35-.36.35.35,0,0,1,.35-.35h3.71a.34.34,0,0,1,.35.35A.36.36,0,0,1,192.42,85.87Z"/><path class="cls-4" d="M186.8,85.87h-7.19a.36.36,0,0,1,0-.71h7.19a.35.35,0,0,1,.35.35A.36.36,0,0,1,186.8,85.87Z"/><path class="cls-4" d="M281,5h-3.71a.35.35,0,1,1,0-.7H281a.35.35,0,1,1,0,.7Z"/><path class="cls-4" d="M275.32,5h-7.14a.35.35,0,0,1,0-.7h7.14a.41.41,0,0,1,.4.35A.41.41,0,0,1,275.32,5Z"/><path class="cls-4" d="M344.34,95.46a.3.3,0,0,1-.3-.25V93.6a.31.31,0,0,1,.3-.25.23.23,0,0,1,0,.25v1.61A.23.23,0,0,1,344.34,95.46Z"/><path class="cls-4" d="M344.34,100.48a.3.3,0,0,1-.3-.3h0V96.47a.31.31,0,0,1,.3-.26.24.24,0,0,1,0,.26v4Z"/><path class="cls-4" d="M276.87,48.09H257.13a.41.41,0,0,1-.35-.41.35.35,0,0,1,.35-.35h19.74a.36.36,0,0,1,.36.35A.41.41,0,0,1,276.87,48.09Z"/><path class="cls-4" d="M267.28,50.25h-10a.36.36,0,0,1,0-.71h10a.36.36,0,0,1,0,.71Z"/><rect class="cls-37" x="179.01" y="15.78" width="1.81" height="36.52"/><rect class="cls-37" x="247.13" y="15.78" width="1.81" height="36.52"/><path class="cls-4" d="M249,54.42H179.71a1.37,1.37,0,0,1-1.4-1.31V14.78a1,1,0,0,1,.95-1h10.05a.36.36,0,0,1,.35.36.41.41,0,0,1-.35.4H179.26V52.86a.65.65,0,0,0,.66.65H249V14.68H194.53a.45.45,0,0,1-.4-.4.41.41,0,0,1,.4-.36H249a.87.87,0,0,1,.81.86V53.71A.82.82,0,0,1,249,54.42Z"/><circle class="cls-37" cx="236.08" cy="50.05" r="1.91"/><circle class="cls-37" cx="231.66" cy="49.59" r="0.5"/><circle class="cls-37" cx="228.7" cy="51.2" r="0.75"/><circle class="cls-37" cx="242.06" cy="50.65" r="1.05"/><circle class="cls-37" cx="239.4" cy="48.79" r="0.45"/><circle class="cls-37" cx="224.93" cy="51.5" r="1.26"/><circle class="cls-37" cx="229.55" cy="48.74" r="0.85"/><circle class="cls-30" cx="282.8" cy="98.47" r="1.91"/><circle class="cls-30" cx="278.43" cy="97.62" r="0.5"/><circle class="cls-30" cx="275.32" cy="98.98" r="0.75"/><circle class="cls-30" cx="288.73" cy="99.58" r="1.05"/><circle class="cls-30" cx="286.22" cy="97.52" r="0.45"/><circle class="cls-30" cx="271.6" cy="98.98" r="1.26"/><circle class="cls-30" cx="276.37" cy="96.62" r="0.85"/><path class="cls-4" d="M222,76.87H186.3a.35.35,0,0,1-.36-.35.36.36,0,0,1,.36-.35H222a.36.36,0,0,1,.36.35A.35.35,0,0,1,222,76.87Z"/><path class="cls-4" d="M264.57,76.87H228.85a.34.34,0,0,1-.35-.35.35.35,0,0,1,.35-.35h35.72a.35.35,0,0,1,.35.35A.35.35,0,0,1,264.57,76.87Z"/><path class="cls-4" d="M346,104h-20.9a.41.41,0,0,1-.4-.35V91.19a.4.4,0,0,1,.4-.4H346a.35.35,0,0,1,.4.29.21.21,0,0,1,0,.11V103.6a.34.34,0,0,1-.34.35Zm-20.5-.75h20.1V91.54h-20.1Z"/></g></g><g id="Layer_2-4" data-name="Layer 2"><g id="Layer_1-2-2" data-name="Layer 1-2"><path class="cls-29" d="M323.93,211.68v8.86a7.15,7.15,0,0,1-7.1,7.14H265.72a7.15,7.15,0,0,1-7.1-7.14v-8.86Z"/><rect class="cls-42" x="259.07" y="211.63" width="65.31" height="2.82"/><rect class="cls-40" x="258.62" y="165.64" width="65.31" height="46.04"/><path class="cls-43" d="M323.68,169.42v3a84.88,84.88,0,0,1-65.41,12.47V169.42Z"/><path class="cls-44" d="M323.93,211.68v8.86a7.15,7.15,0,0,1-7.1,7.14H265.72a7.15,7.15,0,0,1-7.1-7.14v-8.86"/><polyline class="cls-44" points="258.62 189.75 258.62 165.64 323.93 165.64 323.93 211.68 271.25 211.68"/><line class="cls-44" x1="258.62" y1="199.76" x2="258.62" y2="193.92"/><polyline class="cls-44" points="267.53 211.68 258.62 211.68 258.62 205.54"/><path d="M286.75,223.71c-4.18.35-5.39-1.51-5.39-4s1.36-4.17,5.34-4.22v1.4c-3.32,0-3.88.91-3.88,2.67s.86,3,3.93,2.87Z"/><path d="M292.48,221.49c0-1.3-3.72-1.81-3.72-3.67s1.36-2.47,4.73-2.26v1.3c-2.62,0-3.27,0-3.27.76s3.77,1.76,3.77,3.67-1.41,2.62-5,2.47V222.4C291.53,222.6,292.48,222.15,292.48,221.49Z"/><path d="M299.73,221.49c0-1.3-3.73-1.81-3.73-3.67s1.36-2.47,4.73-2.26v1.3c-2.61,0-3.22,0-3.22.76s3.73,1.76,3.73,3.67-1.36,2.62-5,2.47V222.4C298.67,222.6,299.73,222.15,299.73,221.49Z"/><path class="cls-38" d="M246.24,158.3,250,177.42a3.14,3.14,0,0,0,2.11,2.36A85.52,85.52,0,0,0,327.85,165a2.91,2.91,0,0,0,1.06-3l-3.52-18.16"/><path class="cls-45" d="M325.54,144.51l1.06,5.64C289.66,181.24,247,161.92,247,161.92l-.61-3.07h.81l38.94,5.39a4.6,4.6,0,0,0,2.82-.51L323.63,145Z"/><path class="cls-45" d="M322.62,129.62l2.92,15.09-1.91.36-34.72,18.71a4.6,4.6,0,0,1-2.82.51l-38.94-5.59h-.81l-2-10,2.42-5.34,74-13.43Z"/><g class="cls-46"><path class="cls-45" d="M326.34,148.89l1.46,7.34c-36.83,31.1-80.35,8.16-80.35,8.16l-.25-1.16h.8L287,168.61a4.61,4.61,0,0,0,2.82-.5l34.71-18.82Z"/><path class="cls-45" d="M323.48,134.2l2.86,15.09h-1.86L289.66,168a4.57,4.57,0,0,1-2.81.5L248,163.08h-.8l-2-10.07,2.41-5.38,74-13.43Z"/></g><path class="cls-38" d="M344.26,133.34l-61.09-8.45a4.58,4.58,0,0,0-2.81.5L225,155.28v.5l61.18,8.61a4.69,4.69,0,0,0,2.82-.56L344.31,134"/><path class="cls-4" d="M285.34,159.35h0a.48.48,0,1,1-.71-.65h0l1.16-5.48a.46.46,0,0,1,.5-.31.41.41,0,0,1,.31.46l-1,5.48A.55.55,0,0,1,285.34,159.35Z"/><path class="cls-4" d="M287.7,156.18h0a.34.34,0,0,1-.31-.38.17.17,0,0,1,0-.07h0l.6-2.92a.41.41,0,0,1,.52-.23.39.39,0,0,1,.24.23l-.6,2.92a.36.36,0,0,1-.46.45Z"/><path class="cls-44" d="M284.63,183.1A83.42,83.42,0,0,0,328,165.74a3,3,0,0,0,1.11-3l-3.52-18.17"/><path class="cls-44" d="M270.34,183.4a80,80,0,0,0,8.76,0"/><path class="cls-44" d="M250,177.62v.5a2.92,2.92,0,0,0,2.11,2.32A79.66,79.66,0,0,0,265,183"/><line class="cls-44" x1="248.56" y1="170.17" x2="249.26" y2="173.74"/><line class="cls-44" x1="246.39" y1="158.95" x2="247.9" y2="166.85"/><polyline class="cls-47" points="254.59 158.4 227.07 155.23 230.9 153.06 278.7 127.2"/><ellipse class="cls-45" cx="301.7" cy="162.52" rx="4.58" ry="3.17" transform="translate(-25.43 60.44) rotate(-10.98)"/><ellipse class="cls-45" cx="316.13" cy="160.81" rx="1.61" ry="1.16" transform="translate(-24.83 63.11) rotate(-10.97)"/><circle class="cls-45" cx="310.6" cy="159.71" r="2.62"/><circle class="cls-45" cx="322.37" cy="157.14" r="0.96"/><circle class="cls-45" cx="318.6" cy="156.74" r="1.61"/><polyline class="cls-48" points="288.41 162.57 341.19 134.4 291.17 143.3"/><path class="cls-44" d="M248.26,142.7,225,155.28v.5l61.18,8.61a4.69,4.69,0,0,0,2.82-.56L344.31,134"/><line class="cls-44" x1="258.97" y1="136.96" x2="252.94" y2="140.18"/><ellipse class="cls-29" cx="284.64" cy="143.23" rx="5.84" ry="4.78" transform="translate(-22.07 56.84) rotate(-10.98)"/><line class="cls-44" x1="340.03" y1="162.32" x2="343.8" y2="181.69"/><line class="cls-44" x1="338.52" y1="154.42" x2="339.48" y2="159.35"/><polyline class="cls-44" points="290.32 142.05 343.5 133.19 337.92 151.35"/><path class="cls-49" d="M286.8,139.23a3.77,3.77,0,0,0-1.51,1c-.66.71-1,1.72-1.66,2.42a4.64,4.64,0,0,1-3.88,1.16h-.95a5.72,5.72,0,0,1,5-4.53A6.62,6.62,0,0,1,286.8,139.23Z"/><path class="cls-50" d="M285,146.93a5,5,0,0,0,4.62-4.33"/><path class="cls-44" d="M279.6,145.57a3.83,3.83,0,0,1-.65-1.31,5.33,5.33,0,0,1,4.85-5.77l.18,0a4.85,4.85,0,1,1,1.63,9.31h0a6.42,6.42,0,0,1-2.62,0"/><line class="cls-51" x1="285.19" y1="126.6" x2="329.72" y2="132.59"/><path class="cls-44" d="M344.26,133.34l-61.09-8.45a4.58,4.58,0,0,0-2.81.5L262.7,135"/><ellipse class="cls-52" cx="289.41" cy="128.5" rx="2.16" ry="1.46" transform="translate(-19.18 57.47) rotate(-10.98)"/><circle class="cls-52" cx="293.29" cy="130.02" r="0.45"/><circle class="cls-52" cx="285.24" cy="128.66" r="0.81"/><path class="cls-29" d="M341.84,179.48c-.25,0,5,17.56,1.16,22.59l7.29-1.41-4-20.42"/><path class="cls-53" d="M344.66,201.12a20,20,0,0,0,0-9.61"/><path class="cls-42" d="M347.48,186.17l.25,1.51a5.83,5.83,0,0,1-4.28-.4l-.3-1.46A6.22,6.22,0,0,0,347.48,186.17Z"/><path class="cls-44" d="M344.21,192.46a15.92,15.92,0,0,1-1.21,9.76l7.29-1.41-4-20.42"/><path class="cls-44" d="M341.84,179.48s1.21,4.68,2,10.06"/><ellipse class="cls-29" cx="344.74" cy="180.68" rx="4.78" ry="5.84" transform="translate(2.11 365.33) rotate(-55.98)"/><path class="cls-49" d="M349,179.48a3.48,3.48,0,0,0-1.76-.35c-1,0-1.92.5-2.92.5a4.46,4.46,0,0,1-3.52-1.91l-.56-.81a5.84,5.84,0,0,1,6.64,0A6.78,6.78,0,0,1,349,179.48Z"/><path class="cls-50" d="M342.39,183.61a4.75,4.75,0,0,0,6.19,0"/><path class="cls-44" d="M339.38,178.68a3.61,3.61,0,0,1,.6-1.21,5.93,5.93,0,0,1,9.66,6.49,5.43,5.43,0,0,1-7.5.7,6.59,6.59,0,0,1-1.86-1.86"/><circle class="cls-42" cx="345.72" cy="187.78" r="0.86"/><line class="cls-54" x1="347.28" y1="198" x2="347.93" y2="201.27"/><path class="cls-44" d="M319.35,166.45a37.84,37.84,0,0,1-3.72,2.11"/><path class="cls-44" d="M328.51,159.81a74.43,74.43,0,0,1-6.69,5"/><circle class="cls-4" cx="258.52" cy="202.68" r="0.75"/><line class="cls-55" x1="261.44" y1="194.42" x2="261.44" y2="199.15"/><circle class="cls-2" cx="261.44" cy="191.91" r="0.86"/><line class="cls-55" x1="264.16" y1="216.81" x2="268.83" y2="216.81"/><circle class="cls-2" cx="261.64" cy="216.81" r="0.86"/><text class="cls-56" transform="translate(269.29 202.98)">{ : }</text><circle class="cls-43" cx="292.68" cy="186.02" r="2.21"/><circle class="cls-43" cx="297.87" cy="185.82" r="0.6"/><circle class="cls-43" cx="300.99" cy="183.51" r="0.86"/><circle class="cls-43" cx="285.79" cy="186.22" r="1.26"/><circle class="cls-43" cx="289.06" cy="187.93" r="0.55"/><circle class="cls-43" cx="305.26" cy="182.55" r="1.46"/><circle class="cls-43" cx="300.43" cy="186.42" r="0.96"/></g></g><g id="Layer_2-5" data-name="Layer 2"><g id="Layer_1-2-3" data-name="Layer 1-2"><path class="cls-2" d="M87.6,153.61A12.28,12.28,0,0,1,75.37,166H37.75a16.8,16.8,0,1,1,0-33.59h0a16.29,16.29,0,0,1,6.06,1.13,16.74,16.74,0,0,1,31.61,7.88A12.23,12.23,0,0,1,87.6,153.61Z"/><polygon class="cls-3" points="88.78 148.78 51.76 150.93 51.76 143.9 83.42 144.38 88.78 148.78"/><path class="cls-3" d="M87.6,153.61A12.28,12.28,0,0,1,75.37,166H37.75a16.8,16.8,0,0,1-16.9-16.69v-.16a16.1,16.1,0,0,1,1-5.63,16.8,16.8,0,0,0,16.1,11.16H75.48A12.31,12.31,0,0,0,86.21,148,12,12,0,0,1,87.6,153.61Z"/><path class="cls-57" d="M37.64,132.36a16.35,16.35,0,0,1,6.07,1.13,16.75,16.75,0,0,1,14.81-9"/><path class="cls-58" d="M25.09,137.94a18.85,18.85,0,0,1,2.47-2.25"/><path class="cls-58" d="M72.26,131.66a16.88,16.88,0,0,1,3,9.71,12.29,12.29,0,0,1,0,24.58H37.75a16.85,16.85,0,0,1-16.9-16.79v-.06a16.57,16.57,0,0,1,2.52-8.85"/><path class="cls-58" d="M30.61,133.86a17,17,0,0,1,7-1.5,16.35,16.35,0,0,1,6.07,1.13,16.75,16.75,0,0,1,14.81-9,16.42,16.42,0,0,1,6.55,1.35"/><path class="cls-58" d="M43.44,133.38A9.68,9.68,0,0,1,47,137"/><circle class="cls-3" cx="52.29" cy="148.3" r="4.72"/><circle class="cls-3" cx="57.02" cy="146.31" r="4.72"/><circle class="cls-3" cx="63.72" cy="146.31" r="4.72"/><circle class="cls-3" cx="69.57" cy="146.31" r="4.72"/><circle class="cls-3" cx="75.31" cy="146.63" r="4.72"/><path class="cls-57" d="M75.31,141.37a12.29,12.29,0,0,1,0,24.58H37.75a16.85,16.85,0,0,1-16.9-16.79v-.06"/><circle class="cls-3" cx="48.11" cy="154.15" r="4.72"/><path class="cls-2" d="M134.83,153.88a12.07,12.07,0,0,0,12,12.13h37.24A16.58,16.58,0,0,0,186,132.9a14.74,14.74,0,0,0-1.88,0,16.85,16.85,0,0,0-6,1.12A16.53,16.53,0,0,0,147,141.8,12.13,12.13,0,0,0,134.83,153.88Z"/><path class="cls-2" d="M134.83,153.88a12.07,12.07,0,0,0,12,12.13h37.24A16.58,16.58,0,0,0,186,132.9a14.74,14.74,0,0,0-1.88,0,16.85,16.85,0,0,0-6,1.12A16.53,16.53,0,0,0,147,141.8,12.13,12.13,0,0,0,134.83,153.88Z"/><circle class="cls-4" cx="177.97" cy="226" r="0.8"/><circle class="cls-4" cx="33.78" cy="226" r="0.8"/><line class="cls-59" x1="46.71" y1="226" x2="36.79" y2="226"/><line class="cls-59" x1="174.91" y1="226" x2="164.98" y2="226"/><line class="cls-59" x1="220.85" y1="213.55" x2="210.92" y2="213.55"/><path class="cls-60" d="M20.1,208.34a15.32,15.32,0,0,1-.7,3.49A12.66,12.66,0,0,1,20.1,208.34Z"/><path class="cls-60" d="M19.4,211.83a12.66,12.66,0,0,1,.7-3.49A15.32,15.32,0,0,1,19.4,211.83Z"/><path class="cls-60" d="M22,204.37a24.16,24.16,0,0,0-1.93,3.92,11.8,11.8,0,0,0,0-1.88,12.19,12.19,0,0,0-.27-2.41A8.18,8.18,0,0,1,22,204.37Z"/><path class="cls-60" d="M20.1,208.34a15.32,15.32,0,0,1-.7,3.49A12.66,12.66,0,0,1,20.1,208.34Z"/><path class="cls-58" d="M67.32,127a17,17,0,0,1,2.9,2.31"/><path class="cls-3" d="M134.83,153.88a12.07,12.07,0,0,0,12,12.13h37.24a16.59,16.59,0,0,0,16.58-16.59h0a15.83,15.83,0,0,0-1-5.36,16.53,16.53,0,0,1-15.56,11H147a12.13,12.13,0,0,1-10.73-6.55A12,12,0,0,0,134.83,153.88Z"/><path class="cls-57" d="M134.83,153.88a12.07,12.07,0,0,0,12,12.13h37.24A16.58,16.58,0,0,0,186,132.9a14.74,14.74,0,0,0-1.88,0,16.85,16.85,0,0,0-6,1.12A16.53,16.53,0,0,0,147,141.8,12.13,12.13,0,0,0,134.83,153.88Z"/><path class="cls-59" d="M134.83,153.88a12.07,12.07,0,0,0,12,12.13h37.24A16.58,16.58,0,0,0,186,132.9a14.74,14.74,0,0,0-1.88,0,16.85,16.85,0,0,0-6,1.12A16.53,16.53,0,0,0,147,141.8,12.13,12.13,0,0,0,134.83,153.88Z"/><rect class="cls-61" x="142.55" y="161.5" width="65.31" height="15.4" rx="0.91"/><path class="cls-59" d="M188.54,161.44H207a.92.92,0,0,1,.91.86v3.44"/><path class="cls-59" d="M207.86,170.08V176a1,1,0,0,1-.91.91H143.47a.92.92,0,0,1-.92-.91h0V162.36"/><rect class="cls-34" x="134.83" y="161.5" width="61.71" height="15.4" rx="0.91"/><line class="cls-62" x1="202.87" y1="164.61" x2="202.87" y2="173.84"/><line class="cls-62" x1="205.02" y1="164.61" x2="205.02" y2="173.84"/><rect class="cls-61" x="142.55" y="179.9" width="65.31" height="15.4" rx="0.91"/><path class="cls-59" d="M207.86,191.92v2.47a.91.91,0,0,1-.91.91H143.47a.85.85,0,0,1-.92-.8V180.82a.86.86,0,0,1,.8-.92H207a.92.92,0,0,1,.91.92v6.81"/><rect class="cls-34" x="134.83" y="179.9" width="61.71" height="15.4" rx="0.91"/><line class="cls-62" x1="202.87" y1="183.02" x2="202.87" y2="192.19"/><line class="cls-62" x1="205.02" y1="183.02" x2="205.02" y2="192.19"/><rect class="cls-61" x="142.55" y="198.31" width="65.31" height="15.4" rx="0.91"/><path class="cls-59" d="M207.86,205.66V199a1,1,0,0,0-.91-.92H192"/><line class="cls-59" x1="142.55" y1="212.85" x2="142.55" y2="199.22"/><path class="cls-59" d="M207.86,210.06v2.79a.92.92,0,0,1-.91.86H181.46"/><rect class="cls-34" x="134.83" y="198.31" width="61.71" height="15.4" rx="0.91"/><line class="cls-62" x1="202.87" y1="201.42" x2="202.87" y2="210.65"/><line class="cls-62" x1="205.02" y1="201.42" x2="205.02" y2="210.65"/><rect class="cls-4" x="138.74" y="176.9" width="65.95" height="3.01"/><rect class="cls-4" x="138.74" y="195.3" width="65.95" height="3.01"/><path class="cls-63" d="M202.87,168.21a10.73,10.73,0,0,1,0,21.46"/><path class="cls-63" d="M205,185.16a10.74,10.74,0,0,1,0,21.47"/><circle class="cls-64" cx="188.54" cy="206.2" r="2.74"/><circle class="cls-64" cx="188.54" cy="187.36" r="2.74"/><circle class="cls-64" cx="188.54" cy="169.01" r="2.74"/><circle class="cls-62" cx="188.54" cy="206.47" r="2.74"/><circle class="cls-62" cx="188.54" cy="187.63" r="2.74"/><circle class="cls-62" cx="188.54" cy="169.22" r="2.74"/><line class="cls-62" x1="179.36" y1="206.47" x2="185.8" y2="206.47"/><line class="cls-62" x1="179.36" y1="187.63" x2="185.8" y2="187.63"/><line class="cls-62" x1="179.36" y1="169.22" x2="185.8" y2="169.22"/><path class="cls-65" d="M177.16,161.44l-5.79,15.24H135.68a.86.86,0,0,1-.86-.85.13.13,0,0,1,0-.06V162.14a.86.86,0,0,1,.85-.7Z"/><path class="cls-65" d="M170.24,179.69l-5.79,15.4H135.68a.85.85,0,0,1-.85-.86V180.6a.86.86,0,0,1,.8-.91h34.61Z"/><path class="cls-65" d="M163.48,198.09l-5.9,15.41h-21.9a.87.87,0,0,1-.86-.86.13.13,0,0,1,0-.06V199a.9.9,0,0,1,.85-.92Z"/><circle class="cls-4" cx="144.48" cy="161.5" r="1.07"/><polygon class="cls-2" points="151.41 179.69 152.69 179.69 146.9 195.14 145.61 195.14 151.41 179.69"/><polygon class="cls-2" points="144.49 198.15 145.77 198.15 140.03 213.5 138.74 213.5 144.49 198.15"/><polygon class="cls-2" points="159.56 161.28 153.77 176.68 152.48 176.68 158.28 161.28 159.56 161.28"/><polygon class="cls-66" points="154.31 179.69 156.83 179.69 151.03 195.14 148.51 195.14 154.31 179.69"/><polygon class="cls-66" points="147.38 198.15 149.91 198.15 144.16 213.5 141.64 213.5 147.38 198.15"/><polygon class="cls-66" points="163.7 161.28 157.9 176.68 155.43 176.68 161.23 161.28 163.7 161.28"/><path class="cls-59" d="M196.54,169.44V176a1,1,0,0,1-.92.91H135.74a.91.91,0,0,1-.91-.91h0V162.36a.85.85,0,0,1,.8-.92h5"/><path class="cls-59" d="M196.54,190.69v3.7a.91.91,0,0,1-.92.91H135.74a.84.84,0,0,1-.91-.8.2.2,0,0,1,0-.11V180.82a.85.85,0,0,1,.8-.92h60.05a.92.92,0,0,1,.91.92v4.77"/><path class="cls-59" d="M196.54,206v6.81a.92.92,0,0,1-.92.86H135.74a.85.85,0,0,1-.91-.8V199a.91.91,0,0,1,.91-.92h59.94a1,1,0,0,1,.91.92v2.41"/><path class="cls-59" d="M148.19,161.44h47.49a.92.92,0,0,1,.91.86v2.9"/><line class="cls-63" x1="155.06" y1="203.3" x2="155.06" y2="208.77"/><line class="cls-63" x1="152.21" y1="203.3" x2="152.21" y2="208.77"/><line class="cls-63" x1="149.31" y1="203.3" x2="149.31" y2="208.77"/><line class="cls-63" x1="146.47" y1="203.3" x2="146.47" y2="208.77"/><line class="cls-63" x1="143.57" y1="203.3" x2="143.57" y2="208.77"/><line class="cls-63" x1="140.73" y1="203.3" x2="140.73" y2="208.77"/><line class="cls-63" x1="155.06" y1="185.11" x2="155.06" y2="190.58"/><line class="cls-63" x1="152.21" y1="185.11" x2="152.21" y2="190.58"/><line class="cls-63" x1="149.31" y1="185.11" x2="149.31" y2="190.58"/><line class="cls-63" x1="146.47" y1="185.11" x2="146.47" y2="190.58"/><line class="cls-63" x1="143.57" y1="185.11" x2="143.57" y2="190.58"/><line class="cls-63" x1="140.73" y1="185.11" x2="140.73" y2="190.58"/><line class="cls-63" x1="155.27" y1="166.49" x2="155.27" y2="171.96"/><line class="cls-63" x1="152.37" y1="166.49" x2="152.37" y2="171.96"/><line class="cls-63" x1="149.53" y1="166.49" x2="149.53" y2="171.96"/><line class="cls-63" x1="146.68" y1="166.49" x2="146.68" y2="171.96"/><line class="cls-63" x1="143.79" y1="166.49" x2="143.79" y2="171.96"/><line class="cls-63" x1="140.94" y1="166.49" x2="140.94" y2="171.96"/><rect class="cls-61" x="8.34" y="161.5" width="65.31" height="15.4" rx="0.91"/><path class="cls-59" d="M54.33,161.44H72.74a.87.87,0,0,1,.86.86v3.44"/><path class="cls-59" d="M73.6,170.08V176a.92.92,0,0,1-.86.91H9.2a.92.92,0,0,1-.86-.91V162.36"/><rect class="cls-34" x="0.56" y="161.5" width="61.71" height="15.4" rx="0.91"/><line class="cls-62" x1="68.66" y1="164.61" x2="68.66" y2="173.84"/><line class="cls-62" x1="70.81" y1="164.61" x2="70.81" y2="173.84"/><rect class="cls-61" x="8.34" y="179.9" width="65.31" height="15.4" rx="0.91"/><path class="cls-59" d="M73.6,191.92v2.47a.85.85,0,0,1-.81.91H9.2a.85.85,0,0,1-.86-.85V180.82a.85.85,0,0,1,.81-.91H72.74a.87.87,0,0,1,.86.86v6.87"/><rect class="cls-34" x="0.56" y="179.9" width="61.71" height="15.4" rx="0.91"/><line class="cls-62" x1="68.66" y1="183.02" x2="68.66" y2="192.19"/><line class="cls-62" x1="70.81" y1="183.02" x2="70.81" y2="192.19"/><rect class="cls-61" x="8.34" y="198.31" width="65.31" height="15.4" rx="0.91"/><path class="cls-59" d="M73.6,205.66V199a.92.92,0,0,0-.86-.92H57.82"/><line class="cls-59" x1="8.34" y1="212.85" x2="8.34" y2="199.22"/><path class="cls-59" d="M73.6,210.06v2.79a.86.86,0,0,1-.86.86H47.25"/><rect class="cls-34" x="0.56" y="198.31" width="61.71" height="15.4" rx="0.91"/><line class="cls-62" x1="68.66" y1="201.42" x2="68.66" y2="210.65"/><line class="cls-62" x1="70.81" y1="201.42" x2="70.81" y2="210.65"/><rect class="cls-4" x="4.53" y="176.9" width="65.95" height="3.01"/><rect class="cls-4" x="4.53" y="195.3" width="65.95" height="3.01"/><path class="cls-63" d="M68.66,168.21a10.73,10.73,0,1,1,0,21.46"/><path class="cls-63" d="M70.81,185.16a10.74,10.74,0,0,1,0,21.47"/><circle class="cls-62" cx="54.33" cy="206.47" r="2.74"/><circle class="cls-62" cx="54.33" cy="187.63" r="2.74"/><line class="cls-62" x1="45.1" y1="206.47" x2="51.6" y2="206.47"/><line class="cls-62" x1="45.1" y1="187.63" x2="51.6" y2="187.63"/><line class="cls-62" x1="45.1" y1="169.22" x2="51.6" y2="169.22"/><path class="cls-65" d="M42.9,161.44l-5.79,15.24H1.48a.91.91,0,0,1-.92-.91h0V162.14a.92.92,0,0,1,.92-.7Z"/><path class="cls-65" d="M36,179.69l-5.79,15.4H1.48a.92.92,0,0,1-.92-.86V180.6a.92.92,0,0,1,.92-.91H36Z"/><path class="cls-65" d="M29.33,198.09l-6,15.41H1.48a.92.92,0,0,1-.92-.92h0V199a1,1,0,0,1,.92-.92Z"/><circle class="cls-4" cx="10.22" cy="161.5" r="1.07"/><polygon class="cls-2" points="17.14 179.69 18.43 179.69 12.64 195.14 11.35 195.14 17.14 179.69"/><polygon class="cls-2" points="10.28 198.15 11.51 198.15 5.77 213.5 4.48 213.5 10.28 198.15"/><polygon class="cls-2" points="25.36 161.28 19.56 176.68 18.27 176.68 24.07 161.28 25.36 161.28"/><polygon class="cls-66" points="20.1 179.69 22.57 179.69 16.77 195.14 14.3 195.14 20.1 179.69"/><polygon class="cls-66" points="13.17 198.15 15.7 198.15 9.9 213.5 7.43 213.5 13.17 198.15"/><polygon class="cls-66" points="29.49 161.28 23.69 176.68 21.17 176.68 26.96 161.28 29.49 161.28"/><path class="cls-59" d="M62.27,169.44V176a.9.9,0,0,1-.85.91H1.48A1,1,0,0,1,.56,176V162.36a.92.92,0,0,1,.92-.92H6.41"/><path class="cls-59" d="M62.27,190.69v3.7a.85.85,0,0,1-.8.91h-60a.91.91,0,0,1-.92-.91h0V180.82a.92.92,0,0,1,.92-.92h60a.86.86,0,0,1,.86.86v4.83"/><path class="cls-59" d="M62.27,206v6.81a.85.85,0,0,1-.85.86H1.48a.92.92,0,0,1-.92-.86V199a1,1,0,0,1,.92-.92h60a.91.91,0,0,1,.86.92v2.41"/><path class="cls-59" d="M13.93,161.44H61.52a.86.86,0,0,1,.86.86v2.9"/><line class="cls-63" x1="20.85" y1="203.3" x2="20.85" y2="208.77"/><line class="cls-63" x1="17.95" y1="203.3" x2="17.95" y2="208.77"/><line class="cls-63" x1="15.11" y1="203.3" x2="15.11" y2="208.77"/><line class="cls-63" x1="12.21" y1="203.3" x2="12.21" y2="208.77"/><line class="cls-63" x1="9.36" y1="203.3" x2="9.36" y2="208.77"/><line class="cls-63" x1="6.52" y1="203.3" x2="6.52" y2="208.77"/><line class="cls-63" x1="20.85" y1="185.11" x2="20.85" y2="190.58"/><line class="cls-63" x1="17.95" y1="185.11" x2="17.95" y2="190.58"/><line class="cls-63" x1="15.11" y1="185.11" x2="15.11" y2="190.58"/><line class="cls-63" x1="12.21" y1="185.11" x2="12.21" y2="190.58"/><line class="cls-63" x1="9.36" y1="185.11" x2="9.36" y2="190.58"/><line class="cls-63" x1="6.52" y1="185.11" x2="6.52" y2="190.58"/><line class="cls-63" x1="21.01" y1="166.49" x2="21.01" y2="171.96"/><line class="cls-63" x1="18.16" y1="166.49" x2="18.16" y2="171.96"/><line class="cls-63" x1="15.32" y1="166.49" x2="15.32" y2="171.96"/><line class="cls-63" x1="12.42" y1="166.49" x2="12.42" y2="171.96"/><line class="cls-63" x1="9.58" y1="166.49" x2="9.58" y2="171.96"/><line class="cls-63" x1="6.68" y1="166.49" x2="6.68" y2="171.96"/><rect class="cls-61" x="61.9" y="146.63" width="99.17" height="23.4" rx="1.34"/><path class="cls-60" d="M131.77,146.63h27.9A1.34,1.34,0,0,1,161,148v5.37"/><path class="cls-67" d="M161,159.73v9a1.34,1.34,0,0,1-1.34,1.34H63.08a1.34,1.34,0,0,1-1.34-1.34V148"/><rect class="cls-34" x="50.15" y="146.63" width="93.69" height="23.4" rx="1.34"/><line class="cls-68" x1="153.5" y1="151.41" x2="153.5" y2="165.36"/><line class="cls-68" x1="156.77" y1="151.41" x2="156.77" y2="165.36"/><rect class="cls-61" x="61.9" y="174.59" width="99.17" height="23.4" rx="1.34"/><path class="cls-60" d="M161,192.84v3.81a1.34,1.34,0,0,1-1.34,1.34H63.08a1.34,1.34,0,0,1-1.34-1.34V175.93a1.34,1.34,0,0,1,1.34-1.34h96.59a1.34,1.34,0,0,1,1.34,1.34v10.36"/><rect class="cls-34" x="50.15" y="174.59" width="93.69" height="23.4" rx="1.34"/><line class="cls-68" x1="153.5" y1="179.31" x2="153.5" y2="193.32"/><line class="cls-68" x1="156.77" y1="179.31" x2="156.77" y2="193.32"/><rect class="cls-61" x="61.9" y="202.55" width="99.17" height="23.4" rx="1.34"/><path class="cls-60" d="M161,213.66v-9.72a1.39,1.39,0,0,0-1.34-1.39H137"/><line class="cls-67" x1="61.9" y1="224.6" x2="61.9" y2="203.94"/><path class="cls-60" d="M161,220.47v4.19a1.39,1.39,0,0,1-1.34,1.39H121"/><rect class="cls-34" x="50.15" y="202.55" width="93.69" height="23.4" rx="1.34"/><line class="cls-68" x1="153.5" y1="207.27" x2="153.5" y2="221.28"/><line class="cls-68" x1="156.77" y1="207.27" x2="156.77" y2="221.28"/><rect class="cls-4" x="56.16" y="170.03" width="100.13" height="4.56"/><rect class="cls-4" x="56.16" y="197.99" width="100.13" height="4.56"/><path class="cls-69" d="M153.5,156.83a16.47,16.47,0,1,1,1.88,32.89,14.74,14.74,0,0,1-1.88,0"/><path class="cls-69" d="M156.77,182.59a16.48,16.48,0,1,1,0,32.95"/><circle class="cls-64" cx="131.77" cy="214.57" r="4.19"/><circle class="cls-64" cx="131.77" cy="185.97" r="4.19"/><circle class="cls-64" cx="131.77" cy="158.01" r="4.19"/><circle class="cls-68" cx="131.77" cy="214.94" r="4.19"/><circle class="cls-68" cx="131.77" cy="186.29" r="4.19"/><circle class="cls-68" cx="131.77" cy="158.39" r="4.19"/><line class="cls-68" x1="117.76" y1="214.94" x2="127.58" y2="214.94"/><line class="cls-68" x1="117.76" y1="186.29" x2="127.58" y2="186.29"/><line class="cls-68" x1="117.76" y1="158.39" x2="127.58" y2="158.39"/><path class="cls-65" d="M114.43,146.31l-8.8,23.4H51.49a1.34,1.34,0,0,1-1.34-1.34V147.65a1.34,1.34,0,0,1,1.34-1.34Z"/><path class="cls-65" d="M103.92,174.27l-8.8,23.4H51.49a1.35,1.35,0,0,1-1.34-1.35V175.61a1.34,1.34,0,0,1,1.34-1.34Z"/><path class="cls-65" d="M93.72,202.23l-9,23.61H51.49a1.34,1.34,0,0,1-1.34-1.34V203.62a1.39,1.39,0,0,1,1.34-1.39Z"/><circle class="cls-4" cx="66.73" cy="146.63" r="0.97"/><circle class="cls-4" cx="173.25" cy="140.09" r="0.64"/><polygon class="cls-2" points="75.31 174.27 77.25 174.27 68.45 197.72 66.51 197.72 75.31 174.27"/><polygon class="cls-2" points="64.8 202.28 66.78 202.28 58.03 225.62 56.05 225.62 64.8 202.28"/><polygon class="cls-2" points="87.76 146.31 78.96 169.71 76.98 169.71 85.78 146.31 87.76 146.31"/><polygon class="cls-66" points="79.72 174.27 83.53 174.27 74.72 197.72 70.91 197.72 79.72 174.27"/><polygon class="cls-66" points="69.25 202.28 73.06 202.28 64.31 225.62 60.5 225.62 69.25 202.28"/><polygon class="cls-66" points="94.04 146.31 85.24 169.71 81.43 169.71 90.23 146.31 94.04 146.31"/><path class="cls-58" d="M178.13,133.92a8.58,8.58,0,0,0-3.59,3.64"/><ellipse class="cls-70" cx="58.09" cy="164.72" rx="1.82" ry="1.88"/><ellipse class="cls-62" cx="58.09" cy="164.72" rx="1.82" ry="1.88"/><ellipse class="cls-70" cx="58.09" cy="158.49" rx="1.82" ry="1.88"/><ellipse class="cls-62" cx="58.09" cy="158.49" rx="1.82" ry="1.88"/><ellipse class="cls-70" cx="58.09" cy="152.32" rx="1.82" ry="1.88"/><ellipse class="cls-62" cx="58.09" cy="152.32" rx="1.82" ry="1.88"/><ellipse class="cls-70" cx="63.83" cy="164.72" rx="1.82" ry="1.88"/><ellipse class="cls-62" cx="63.83" cy="164.72" rx="1.82" ry="1.88"/><ellipse class="cls-70" cx="63.83" cy="158.49" rx="1.82" ry="1.88"/><ellipse class="cls-62" cx="63.83" cy="158.49" rx="1.82" ry="1.88"/><ellipse class="cls-70" cx="63.83" cy="152.32" rx="1.82" ry="1.88"/><ellipse class="cls-62" cx="63.83" cy="152.32" rx="1.82" ry="1.88"/><ellipse class="cls-14" cx="69.57" cy="164.72" rx="1.82" ry="1.88"/><ellipse class="cls-62" cx="69.57" cy="164.72" rx="1.82" ry="1.88"/><ellipse class="cls-14" cx="69.57" cy="158.49" rx="1.82" ry="1.88"/><ellipse class="cls-62" cx="69.57" cy="158.49" rx="1.82" ry="1.88"/><ellipse class="cls-71" cx="69.57" cy="152.32" rx="1.82" ry="1.88"/><ellipse class="cls-62" cx="69.57" cy="152.32" rx="1.82" ry="1.88"/><ellipse class="cls-70" cx="75.31" cy="164.72" rx="1.82" ry="1.88"/><ellipse class="cls-62" cx="75.31" cy="164.72" rx="1.82" ry="1.88"/><ellipse class="cls-70" cx="75.31" cy="158.49" rx="1.82" ry="1.88"/><ellipse class="cls-62" cx="75.31" cy="158.49" rx="1.82" ry="1.88"/><ellipse class="cls-70" cx="75.31" cy="152.32" rx="1.82" ry="1.88"/><ellipse class="cls-62" cx="75.31" cy="152.32" rx="1.82" ry="1.88"/><ellipse class="cls-70" cx="58.09" cy="192.19" rx="1.82" ry="1.88"/><ellipse class="cls-62" cx="58.09" cy="192.19" rx="1.82" ry="1.88"/><ellipse class="cls-70" cx="58.09" cy="185.97" rx="1.82" ry="1.88"/><ellipse class="cls-62" cx="58.09" cy="185.97" rx="1.82" ry="1.88"/><ellipse class="cls-70" cx="58.09" cy="179.74" rx="1.82" ry="1.88"/><ellipse class="cls-62" cx="58.09" cy="179.74" rx="1.82" ry="1.88"/><ellipse class="cls-70" cx="63.83" cy="192.19" rx="1.82" ry="1.88"/><ellipse class="cls-62" cx="63.83" cy="192.19" rx="1.82" ry="1.88"/><ellipse class="cls-70" cx="63.83" cy="185.97" rx="1.82" ry="1.88"/><ellipse class="cls-62" cx="63.83" cy="185.97" rx="1.82" ry="1.88"/><ellipse class="cls-70" cx="63.83" cy="179.74" rx="1.82" ry="1.88"/><ellipse class="cls-62" cx="63.83" cy="179.74" rx="1.82" ry="1.88"/><ellipse class="cls-14" cx="69.57" cy="192.19" rx="1.82" ry="1.88"/><ellipse class="cls-62" cx="69.57" cy="192.19" rx="1.82" ry="1.88"/><ellipse class="cls-14" cx="69.57" cy="185.97" rx="1.82" ry="1.88"/><ellipse class="cls-62" cx="69.57" cy="185.97" rx="1.82" ry="1.88"/><ellipse class="cls-62" cx="69.57" cy="179.74" rx="1.82" ry="1.88"/><ellipse class="cls-14" cx="69.57" cy="179.74" rx="1.82" ry="1.88"/><ellipse class="cls-62" cx="69.57" cy="179.74" rx="1.82" ry="1.88"/><ellipse class="cls-70" cx="75.31" cy="192.19" rx="1.82" ry="1.88"/><ellipse class="cls-62" cx="75.31" cy="192.19" rx="1.82" ry="1.88"/><ellipse class="cls-70" cx="75.31" cy="185.97" rx="1.82" ry="1.88"/><ellipse class="cls-62" cx="75.31" cy="185.97" rx="1.82" ry="1.88"/><ellipse class="cls-70" cx="75.31" cy="179.74" rx="1.82" ry="1.88"/><ellipse class="cls-62" cx="75.31" cy="179.74" rx="1.82" ry="1.88"/><ellipse class="cls-70" cx="58.09" cy="220.47" rx="1.82" ry="1.88"/><ellipse class="cls-62" cx="58.09" cy="220.47" rx="1.82" ry="1.88"/><ellipse class="cls-70" cx="58.09" cy="214.3" rx="1.82" ry="1.88"/><ellipse class="cls-62" cx="58.09" cy="214.3" rx="1.82" ry="1.88"/><ellipse class="cls-70" cx="58.09" cy="208.08" rx="1.82" ry="1.88"/><ellipse class="cls-62" cx="58.09" cy="208.08" rx="1.82" ry="1.88"/><ellipse class="cls-70" cx="63.83" cy="220.47" rx="1.82" ry="1.88"/><ellipse class="cls-62" cx="63.83" cy="220.47" rx="1.82" ry="1.88"/><ellipse class="cls-70" cx="63.83" cy="214.3" rx="1.82" ry="1.88"/><ellipse class="cls-62" cx="63.83" cy="214.3" rx="1.82" ry="1.88"/><ellipse class="cls-70" cx="63.83" cy="208.08" rx="1.82" ry="1.88"/><ellipse class="cls-62" cx="63.83" cy="208.08" rx="1.82" ry="1.88"/><ellipse class="cls-14" cx="69.57" cy="220.47" rx="1.82" ry="1.88"/><ellipse class="cls-62" cx="69.57" cy="220.47" rx="1.82" ry="1.88"/><ellipse class="cls-14" cx="69.57" cy="214.3" rx="1.82" ry="1.88"/><ellipse class="cls-62" cx="69.57" cy="214.3" rx="1.82" ry="1.88"/><ellipse class="cls-14" cx="69.57" cy="208.08" rx="1.82" ry="1.88"/><ellipse class="cls-62" cx="69.57" cy="208.08" rx="1.82" ry="1.88"/><ellipse class="cls-70" cx="75.31" cy="220.47" rx="1.82" ry="1.88"/><ellipse class="cls-62" cx="75.31" cy="220.47" rx="1.82" ry="1.88"/><ellipse class="cls-70" cx="75.31" cy="214.3" rx="1.82" ry="1.88"/><ellipse class="cls-62" cx="75.31" cy="214.3" rx="1.82" ry="1.88"/><ellipse class="cls-70" cx="75.31" cy="208.08" rx="1.82" ry="1.88"/><ellipse class="cls-62" cx="75.31" cy="208.08" rx="1.82" ry="1.88"/><path class="cls-61" d="M125.49,166.22h17.87a.74.74,0,0,1,.8.59v1a1.72,1.72,0,0,1-1.71,1.71h-17a1.72,1.72,0,0,1-1.72-1.71h0a1.72,1.72,0,0,1,1.72-1.72Z"/><path class="cls-61" d="M142.07,162.2h0a1.34,1.34,0,0,1,1.34,1.34v2.84a1.34,1.34,0,0,1-1.34,1.34h0a1.34,1.34,0,0,1-1.34-1.34v-2.84A1.34,1.34,0,0,1,142.07,162.2Z"/><rect class="cls-61" x="123.77" y="194.39" width="20.39" height="3.43" rx="1.72"/><path class="cls-61" d="M142.07,190.37h0a1.34,1.34,0,0,1,1.34,1.34v2.84a1.34,1.34,0,0,1-1.34,1.34h0a1.34,1.34,0,0,1-1.34-1.34v-2.84A1.34,1.34,0,0,1,142.07,190.37Z"/><path class="cls-61" d="M125.49,223.05h17.87a.75.75,0,0,1,.75.75v1a1.72,1.72,0,0,1-1.72,1.72h-16.9a1.72,1.72,0,0,1-1.72-1.72h0A1.72,1.72,0,0,1,125.49,223.05Z"/><path class="cls-61" d="M142.07,219h0a1.34,1.34,0,0,1,1.34,1.34v2.85a1.34,1.34,0,0,1-1.34,1.34h0a1.34,1.34,0,0,1-1.34-1.34v-2.85A1.34,1.34,0,0,1,142.07,219Z"/><path class="cls-61" d="M115.19,223.05h17.86a.75.75,0,0,1,.76.75v1a1.72,1.72,0,0,1-1.72,1.72h-16.9a1.72,1.72,0,0,1-1.72-1.72h0A1.72,1.72,0,0,1,115.19,223.05Z"/><path class="cls-60" d="M143.84,158.71v10A1.34,1.34,0,0,1,142.5,170H51.27a1.34,1.34,0,0,1-1.34-1.34V148a1.34,1.34,0,0,1,1.34-1.34H63"/><circle class="cls-61" cx="136.81" cy="222.89" r="0.7"/><circle class="cls-61" cx="139.01" cy="221.76" r="0.32"/><circle class="cls-61" cx="138.37" cy="222.73" r="0.32"/><circle class="cls-61" cx="134.13" cy="221.33" r="0.27"/><circle class="cls-61" cx="134.77" cy="222.78" r="0.38"/><circle class="cls-61" cx="132.95" cy="222.4" r="0.16"/><circle class="cls-61" cx="132.25" cy="220.58" r="0.43"/><circle class="cls-61" cx="131.98" cy="223.05" r="0.27"/><circle class="cls-61" cx="139.76" cy="220.36" r="0.43"/><circle class="cls-61" cx="136.81" cy="194.39" r="0.7"/><circle class="cls-61" cx="139.01" cy="193.27" r="0.32"/><circle class="cls-61" cx="138.37" cy="194.28" r="0.32"/><circle class="cls-61" cx="134.13" cy="192.84" r="0.27"/><circle class="cls-61" cx="134.77" cy="194.34" r="0.38"/><circle class="cls-61" cx="132.95" cy="193.91" r="0.16"/><circle class="cls-61" cx="132.25" cy="192.08" r="0.43"/><circle class="cls-61" cx="131.98" cy="194.61" r="0.27"/><circle class="cls-61" cx="139.76" cy="191.87" r="0.43"/><circle class="cls-65" cx="106.28" cy="207.81" r="0.7"/><circle class="cls-65" cx="104.08" cy="208.93" r="0.32"/><circle class="cls-65" cx="104.72" cy="207.92" r="0.32"/><circle class="cls-65" cx="108.96" cy="209.36" r="0.27"/><circle class="cls-65" cx="108.32" cy="207.86" r="0.38"/><circle class="cls-65" cx="110.14" cy="208.29" r="0.16"/><circle class="cls-65" cx="110.84" cy="210.06" r="0.43"/><circle class="cls-65" cx="111.11" cy="207.59" r="0.27"/><circle class="cls-65" cx="103.33" cy="210.28" r="0.43"/><path class="cls-65" d="M101.61,202.44H119a2,2,0,0,1,2,2h0a2,2,0,0,1-2,2H101.61a2,2,0,0,1-2-2h0A2,2,0,0,1,101.61,202.44Z"/><circle class="cls-65" cx="106.28" cy="180.23" r="0.7"/><circle class="cls-65" cx="104.08" cy="181.35" r="0.32"/><circle class="cls-65" cx="104.72" cy="180.39" r="0.32"/><circle class="cls-65" cx="108.96" cy="181.78" r="0.27"/><circle class="cls-65" cx="108.32" cy="180.33" r="0.38"/><circle class="cls-65" cx="110.14" cy="180.71" r="0.16"/><circle class="cls-65" cx="110.84" cy="182.53" r="0.43"/><circle class="cls-65" cx="111.11" cy="180.06" r="0.27"/><circle class="cls-65" cx="103.33" cy="182.75" r="0.43"/><path class="cls-65" d="M101.61,174.91H119a2,2,0,0,1,2,2h0a2,2,0,0,1-2,2H101.61a2,2,0,0,1-2-2h0A2,2,0,0,1,101.61,174.91Z"/><circle class="cls-65" cx="116.26" cy="151.62" r="0.7"/><circle class="cls-65" cx="114.06" cy="152.75" r="0.32"/><circle class="cls-65" cx="114.76" cy="151.78" r="0.32"/><circle class="cls-65" cx="119" cy="153.18" r="0.27"/><circle class="cls-65" cx="118.3" cy="151.73" r="0.38"/><circle class="cls-65" cx="120.18" cy="152.11" r="0.16"/><circle class="cls-65" cx="120.87" cy="153.93" r="0.43"/><circle class="cls-65" cx="121.14" cy="151.46" r="0.27"/><circle class="cls-65" cx="113.31" cy="154.15" r="0.43"/><rect class="cls-65" x="109.66" y="146.31" width="21.36" height="3.97" rx="1.99"/><path class="cls-60" d="M143.84,214.3v10.3a1.4,1.4,0,0,1-1.34,1.4H51.27a1.4,1.4,0,0,1-1.34-1.4V203.94a1.39,1.39,0,0,1,1.34-1.39H142.5a1.39,1.39,0,0,1,1.34,1.39v3.71"/><path class="cls-60" d="M70.43,146.63H142.5a1.34,1.34,0,0,1,1.34,1.34v4.3"/><line class="cls-72" x1="52.29" y1="151.3" x2="52.29" y2="154.15"/><circle class="cls-2" cx="52.29" cy="149.21" r="0.54"/><path class="cls-60" d="M143.84,191v5.69A1.34,1.34,0,0,1,142.5,198H51.27a1.34,1.34,0,0,1-1.34-1.34V175.93a1.34,1.34,0,0,1,1.34-1.34H142.5a1.34,1.34,0,0,1,1.34,1.34v7.3"/><polygon class="cls-73" points="107.56 171.16 109.98 164.07 115.99 167.94 108.8 149.26 100.43 152.48 107.56 171.16"/><polygon class="cls-74" points="103.11 159.51 107.78 159.08 111.75 156.88 108.8 149.26 100.43 152.48 103.11 159.51"/><polygon class="cls-69" points="107.56 171.16 109.98 164.07 115.99 167.94 108.8 149.26 100.43 152.48 107.56 171.16"/><polygon class="cls-73" points="96.62 171.16 94.26 164.72 88.19 167.94 95.33 149.26 103.75 152.48 96.62 171.16"/><polygon class="cls-74" points="101.23 159.08 96.4 158.87 92.7 156.19 95.33 149.26 103.75 152.48 101.23 159.08"/><polyline class="cls-69" points="92.27 157.26 95.33 149.26 103.75 152.48 96.62 171.16 94.26 164.72 88.19 167.94 89.53 164.45"/><line class="cls-69" x1="90.45" y1="162.09" x2="91.41" y2="159.51"/><path class="cls-74" d="M104.45,156.88h0a11.86,11.86,0,0,1-12-11.53h0A11.86,11.86,0,0,1,104,133.22h.43a11.81,11.81,0,0,1,11.6,12s0,.08,0,.12h0A11.79,11.79,0,0,1,104.45,156.88Z"/><path class="cls-69" d="M104.45,156.88h0a11.86,11.86,0,0,1-12-11.53h0A11.86,11.86,0,0,1,104,133.22h.43a11.81,11.81,0,0,1,11.6,12s0,.08,0,.12h0A11.79,11.79,0,0,1,104.45,156.88Z"/><path id="Fill-3" class="cls-2" d="M107,147.49a1.23,1.23,0,1,1-.52-2.41,1.14,1.14,0,0,1,.52,0,1.23,1.23,0,0,1,.51,2.41,1.1,1.1,0,0,1-.51,0m0,2a4.54,4.54,0,0,1-2.53,1.18,4.42,4.42,0,0,1-2.89-.91.32.32,0,0,1,0-.43m.42,0a4.71,4.71,0,0,0,4.94,0,.33.33,0,0,1,.46,0l0,0a.32.32,0,0,1,0,.43m-6.86-3.27a1.23,1.23,0,1,1,1.23,1.23h0a1.17,1.17,0,0,1-1.23-1.12.2.2,0,0,1,0-.11m11.59-1.18a1.71,1.71,0,0,0-1.67-1.77h0a1.74,1.74,0,0,0-1.18.49,8.64,8.64,0,0,0-4.78-1.72l.75-3.7,2.58.59a1.4,1.4,0,0,0,2.7.17,1.24,1.24,0,0,0-1-1.46,1.14,1.14,0,0,0-.52,0,1.18,1.18,0,0,0-1.07.64L105,138h0l-.86,4.08h0a8.52,8.52,0,0,0-4.66,1.45,1.93,1.93,0,0,0-1.18-.48,1.71,1.71,0,0,0-2,1.35,1.85,1.85,0,0,0,.08,1,1.73,1.73,0,0,0,1,1.55,1.63,1.63,0,0,0,0,.54c0,2.63,3.06,4.77,6.87,4.77s6.92-2.14,6.92-4.77a1.63,1.63,0,0,0,0-.54,1.72,1.72,0,0,0,.92-1.55"/><path class="cls-73" d="M101.23,156.88h0a11.85,11.85,0,0,1-11.8-11.53h0a11.85,11.85,0,0,1,11.8-11.86h0A11.8,11.8,0,0,1,113,145.29v.06h0A11.81,11.81,0,0,1,101.23,156.88Z"/><path class="cls-69" d="M91.68,138.15a11.73,11.73,0,0,1,9.55-4.93h0A11.8,11.8,0,0,1,113,145v.33h0a11.8,11.8,0,0,1-11.81,11.8h0a11.86,11.86,0,0,1-11.8-11.8h0a11.51,11.51,0,0,1,.8-4.3"/><path class="cls-72" d="M92.38,139.66A8.86,8.86,0,0,1,94.85,137"/><circle class="cls-2" cx="95.97" cy="136.33" r="0.48"/><circle class="cls-2" cx="93.56" cy="158.44" r="0.48"/><line class="cls-72" x1="92.43" y1="161.39" x2="93.08" y2="159.67"/></g></g><path class="cls-75" d="M107.6,285.49c-3.79-7.07-14.78-4.94-14.75-15.89v-2.06a18.84,18.84,0,0,1,18.79-18.79h3.06a18.84,18.84,0,0,1,18.79,18.79v2.06c0,10.95-11,8.82-14.76,15.89l-2.53-4.3,2.4-5.4v15.94h-11V275.79"/><rect class="cls-76" x="107.65" y="289.28" width="10.76" height="1.89"/><path class="cls-75" d="M85.73,309.8c-.14-.12-8.58-2.23-9.94-14.93,0,0,5.56,7,12.73,6.95"/><path class="cls-76" d="M85.73,309.8c-.14-.12-8.58-2.23-9.94-14.93,0,0,5.56,12,12.73,11.94"/><path class="cls-77" d="M85.73,309.8c-.14-.12-8.58-2.23-9.94-14.93,0,0,5.56,7,12.73,6.95"/><path class="cls-78" d="M133.26,266.49v1.95a12.27,12.27,0,0,1-.06,1.24c-.77-9.11-8.9-16.34-18.73-16.34h-3.06c-9.83,0-18,7.23-18.73,16.34a12.27,12.27,0,0,1-.06-1.24v-1.95c0-9.76,8.46-17.74,18.79-17.74h3.06C124.8,248.75,133.26,256.73,133.26,266.49Z"/><rect class="cls-75" x="77.89" y="311.77" width="70.08" height="12.33" rx="6.16"/><rect class="cls-75" x="84.7" y="301.84" width="56.48" height="9.93" rx="4.97"/><rect class="cls-75" x="89.67" y="291.85" width="46.52" height="10.04" rx="5.02"/><path class="cls-79" d="M136.19,296.38a5,5,0,0,1-5,5H94.69a5,5,0,0,1-5-5,5,5,0,0,1,.24-1.5,5,5,0,0,0,4.78,3.51h36.48a5,5,0,0,0,4.79-3.51A5,5,0,0,1,136.19,296.38Z"/><path class="cls-76" d="M114.7,268.69h-3.06a9.12,9.12,0,0,1-7.74-4.35,14.83,14.83,0,0,1-1.76-3.57c-5,.72-8.25,5-8.28,5a.8.8,0,1,1-1.28-1c.16-.21,4-5.24,10.07-5.73a.79.79,0,0,1,.84.6c.07.31,1.89,7.38,8.15,7.38h3.06c6.59,0,8.13-7,8.19-7.35a.81.81,0,0,1,.85-.63c6,.49,9.85,5.52,10,5.73a.8.8,0,1,1-1.27,1c0-.05-3.28-4.29-8.22-5C123.62,262.84,121.24,268.69,114.7,268.69Z"/><path class="cls-76" d="M114.7,270.88h-3.06c-5.62,0-8.67-4.68-9.78-7.87-3.52.63-7.6,3.89-8.57,5.68-.32.58.27-1-.22-1.48a1.21,1.21,0,0,1-.06-1.7,15.2,15.2,0,0,1,9.61-5,1.2,1.2,0,0,1,1.26.91c.07.29,1.82,7.07,7.76,7.07h3.06c6.26,0,7.74-6.74,7.8-7a1.21,1.21,0,0,1,1.27-.95c6.21.51,10.14,5.67,10.3,5.89a1.19,1.19,0,1,1-1.91,1.43,14,14,0,0,0-7.6-4.8C123.54,266.22,120.57,270.88,114.7,270.88Z"/><circle class="cls-4" cx="107.92" cy="258.94" r="1.43"/><circle class="cls-4" cx="118.41" cy="258.94" r="1.43"/><path class="cls-80" d="M104.46,291.85a4.8,4.8,0,1,1-9.59,0Z"/><path class="cls-80" d="M117.73,292.08a4.79,4.79,0,0,1-9.58,0"/><path class="cls-80" d="M131,292.08a4.8,4.8,0,0,1-9.59,0"/><path class="cls-80" d="M104.46,302.34a4.8,4.8,0,0,1-9.59,0"/><path class="cls-80" d="M117.73,302.34a4.79,4.79,0,0,1-9.58,0"/><path class="cls-80" d="M131,302.34a4.8,4.8,0,0,1-9.59,0"/><path class="cls-80" d="M111.52,311.94a4.8,4.8,0,0,1-9.59,0"/><path class="cls-80" d="M98.5,311.94a4.79,4.79,0,0,1-9.58,0"/><path class="cls-80" d="M124.53,311.94a4.79,4.79,0,0,1-9.58,0"/><path class="cls-80" d="M137.55,311.94a4.8,4.8,0,0,1-9.59,0"/><path class="cls-81" d="M101.1,255.69a13.51,13.51,0,0,1,4.17-2.79"/><circle class="cls-2" cx="107.7" cy="252.21" r="0.69"/><path class="cls-82" d="M104.75,292.48a4.79,4.79,0,0,1-9.58,0"/><path class="cls-82" d="M118,292.48a4.79,4.79,0,1,1-9.58,0"/><path class="cls-82" d="M131.3,292.48a4.79,4.79,0,0,1-9.58,0"/><path class="cls-82" d="M104.75,302.74a4.79,4.79,0,0,1-9.58,0"/><path class="cls-82" d="M118,302.74a4.79,4.79,0,1,1-9.58,0"/><path class="cls-82" d="M131.3,302.74a4.79,4.79,0,0,1-9.58,0"/><path class="cls-82" d="M111.81,312.34a4.79,4.79,0,0,1-9.58,0"/><path class="cls-82" d="M98.8,312.34a4.8,4.8,0,0,1-9.59,0"/><path class="cls-82" d="M124.82,312.34a4.79,4.79,0,1,1-9.58,0"/><path class="cls-82" d="M137.84,312.34a4.79,4.79,0,1,1-9.58,0"/><path class="cls-77" d="M93.29,263.88s4.2-4.94,10.2-4.94c0,0,1.23,8,8.22,8"/><path class="cls-77" d="M133.18,263.88s-4.2-4.94-10.2-4.94c0,0-1.24,8-8.22,8"/><path class="cls-83" d="M93.71,271.05a23,23,0,0,1,9.1-2.43"/><path class="cls-83" d="M94.87,274.32a20.82,20.82,0,0,1,8.86-2.22"/><path class="cls-83" d="M96.93,277.24a16.41,16.41,0,0,1,5.46-1.61"/><path class="cls-83" d="M132.69,271.05a23.12,23.12,0,0,0-9.11-2.43"/><path class="cls-83" d="M131.52,274.32a20.82,20.82,0,0,0-8.86-2.22"/><path class="cls-83" d="M129.46,277.24a16.41,16.41,0,0,0-5.46-1.61"/><path class="cls-83" d="M107.67,278.78s5.53,3.15,10.93,0"/><path class="cls-83" d="M107.67,282.42s5.53,3.15,10.93,0"/><path class="cls-83" d="M107.67,286s5.53,3.14,10.93,0"/><polyline class="cls-77" points="118.67 275.85 118.67 291.8 107.67 291.8 107.67 275.85"/><path class="cls-77" d="M107.67,285.56c-3.79-7.07-15-4.3-14.76-15.9v-2.05a18.86,18.86,0,0,1,18.8-18.8"/><path class="cls-77" d="M118.8,285.56c3.79-7.07,14.78-4.94,14.75-15.9v-2.05a18.85,18.85,0,0,0-18.79-18.8"/><path class="cls-79" d="M141.17,306.64a4.66,4.66,0,0,1-1.78,3.55,6.84,6.84,0,0,1-4.31,1.47H90.79c-3.36,0-6.09-2.25-6.09-5a4,4,0,0,1,.28-1.51,6.1,6.1,0,0,0,5.81,3.51h44.29a6.84,6.84,0,0,0,4.31-1.47,5,5,0,0,0,1.49-2A4.06,4.06,0,0,1,141.17,306.64Z"/><path class="cls-79" d="M147.51,318.52a4.45,4.45,0,0,1-2.17,3.56,9.63,9.63,0,0,1-5.25,1.47l-56,.55c-4.1,0-6.12-2.62-6.12-5.4a6.3,6.3,0,0,1,.55-2c1,2,4.31,3.8,7.63,3.8h54a9.55,9.55,0,0,0,5.25-1.48,5.07,5.07,0,0,0,1.82-2A3.37,3.37,0,0,1,147.51,318.52Z"/><rect class="cls-77" x="77.89" y="311.77" width="70.08" height="12.33" rx="6.16"/><path class="cls-84" d="M87,303.8s.65-1.28,4.26-1.06"/><rect class="cls-77" x="84.7" y="301.84" width="56.48" height="9.93" rx="4.97"/><path class="cls-77" d="M101.93,291.8h29.24a5,5,0,0,1,5,5h0a5,5,0,0,1-5,5H94.69a5,5,0,0,1-5-5h0a5,5,0,0,1,5-5h2.24"/><rect class="cls-2" x="216.59" y="251.16" width="40.52" height="52.7"/><rect class="cls-30" x="216.59" y="297.56" width="40.52" height="6.3"/><line class="cls-85" x1="221.47" y1="256.03" x2="241.68" y2="256.03"/><line class="cls-85" x1="221.47" y1="258.6" x2="234.41" y2="258.6"/><line class="cls-85" x1="221.47" y1="261.31" x2="229.27" y2="261.31"/><line class="cls-85" x1="231.57" y1="261.31" x2="233.61" y2="261.31"/><line class="cls-85" x1="236.48" y1="261.31" x2="239.26" y2="261.31"/><line class="cls-85" x1="221.47" y1="263.81" x2="231.57" y2="263.81"/><line class="cls-85" x1="221.47" y1="267.7" x2="241.68" y2="267.7"/><line class="cls-85" x1="221.47" y1="270.27" x2="234.41" y2="270.27"/><line class="cls-85" x1="221.47" y1="272.98" x2="229.27" y2="272.98"/><line class="cls-85" x1="231.57" y1="272.98" x2="233.61" y2="272.98"/><line class="cls-85" x1="236.48" y1="272.98" x2="239.26" y2="272.98"/><line class="cls-85" x1="221.47" y1="275.48" x2="241.68" y2="275.48"/><line class="cls-85" x1="221.47" y1="279.24" x2="241.68" y2="279.24"/><line class="cls-85" x1="221.47" y1="281.81" x2="234.41" y2="281.81"/><rect class="cls-86" x="216.59" y="251.16" width="40.52" height="52.7"/><rect class="cls-87" x="128.58" y="259.58" width="96.78" height="71.11" rx="4.06"/><rect class="cls-88" x="129.15" y="269.31" width="95.47" height="2.41"/><rect class="cls-88" x="129.23" y="325.86" width="95.47" height="4.09"/><polygon class="cls-2" points="177.05 259.55 163.18 330.7 157.5 330.7 171.37 259.55 177.05 259.55"/><polygon class="cls-2" points="203.43 259.51 189.64 330.66 176.42 330.66 190.29 259.51 203.43 259.51"/><polygon class="cls-2" points="213.33 259.51 199.46 330.66 193.78 330.66 207.65 259.51 213.33 259.51"/><line class="cls-89" x1="136.31" y1="280.19" x2="136.31" y2="318.18"/><circle class="cls-90" cx="136.31" cy="264.25" r="1.62"/><circle class="cls-91" cx="141.37" cy="264.25" r="1.62"/><circle class="cls-92" cx="146.42" cy="264.25" r="1.62"/><path class="cls-86" d="M150.28,259.58h71a4.05,4.05,0,0,1,4.06,4.05v63a4.05,4.05,0,0,1-4.06,4.05H132.63a4,4,0,0,1-4-4.05v-63a4,4,0,0,1,4-4.05H144"/><line class="cls-93" x1="129.15" y1="269.31" x2="150.62" y2="269.31"/><line class="cls-93" x1="156.16" y1="269.31" x2="224.62" y2="269.31"/><line class="cls-86" x1="254.88" y1="324.1" x2="262.09" y2="324.1"/><line class="cls-86" x1="67.48" y1="324.1" x2="74.69" y2="324.1"/><circle class="cls-2" cx="266.99" cy="276.43" r="17.18"/><circle class="cls-86" cx="266.99" cy="276.43" r="17.18"/><text class="cls-94" transform="translate(255.13 279.57)">&lt;/&gt;</text><path class="cls-95" d="M229,295.92a39.64,39.64,0,0,0-12.82,0c-5.43,1-6.41,3-6.41,6.68v2.62h12.83v3.9H204.91a8,8,0,0,0-8,6.52,24,24,0,0,0,0,13c.91,3.8,3.08,6.52,6.82,6.52h4.41v-5.87a8.15,8.15,0,0,1,8-8H229a6.47,6.47,0,0,0,6.42-6.52V302.6C235.38,299.12,232.45,296.51,229,295.92ZM215.34,303a2.35,2.35,0,1,1,2.31-2.34A2.33,2.33,0,0,1,215.34,303Z"/><path class="cls-96" d="M234.77,309.32v5.52a6.47,6.47,0,0,1-6.42,6.52H215.53a7.83,7.83,0,0,0-1.29.11l-6.3,5.37a7.21,7.21,0,0,0-.44,2.49v5.87h-4.4a6.1,6.1,0,0,1-3.66-1.13,7.43,7.43,0,0,1-2.36-3.05c1.25-5.62,4.67-13.42,14-13.57a37.79,37.79,0,0,0,9.68-1.5A47,47,0,0,0,234.77,309.32Z"/><path class="cls-97" d="M250.44,317.59c-.92-3.71-2.67-6.51-6.41-6.51h-4.82v5.7a8.23,8.23,0,0,1-8,8.13H218.36a6.55,6.55,0,0,0-6.41,6.53v12.22c0,3.49,3,5.53,6.41,6.53a21.71,21.71,0,0,0,12.83,0c3.23-.94,6.42-2.83,6.42-6.53V341.1H224.79v-4H244c3.74,0,5.12-2.6,6.41-6.51S251.73,322.74,250.44,317.59ZM230.9,343.51a2.35,2.35,0,1,1-2.32,2.35A2.35,2.35,0,0,1,230.9,343.51Z"/><polygon class="cls-2" points="244.43 311.08 239.35 337.14 236.17 337.14 241.25 311.08 244.43 311.08"/><path class="cls-2" d="M236.52,323.28l-2.68,13.86h-7.4l2.37-12.23h3A7.85,7.85,0,0,0,236.52,323.28Z"/><path class="cls-77" d="M213.06,327.83a6.47,6.47,0,0,0-1.11,3.61v12.22c0,3.49,3,5.53,6.41,6.53a21.71,21.71,0,0,0,12.83,0c3.23-.94,6.42-2.83,6.42-6.53V341.1H224.79v-4H244c3.74,0,5.12-2.6,6.41-6.51s1.29-7.89,0-13c-.92-3.71-2.67-6.51-6.41-6.51h-4.82v5.7a8.23,8.23,0,0,1-8,8.13H218.36a6.26,6.26,0,0,0-2.81.68"/><path class="cls-77" d="M203,309.34a8,8,0,0,0-6.09,6.31,24,24,0,0,0,0,13c.91,3.8,3.08,6.52,6.82,6.52h4.41v-5.87a8.15,8.15,0,0,1,8-8H229a6.47,6.47,0,0,0,6.42-6.52V302.6c0-3.48-2.93-6.09-6.42-6.68a39.64,39.64,0,0,0-12.82,0c-5.43,1-6.41,3-6.41,6.68v2.62h12.83v3.9H206.48"/><line class="cls-98" x1="141.17" y1="300.28" x2="173.82" y2="300.28"/><line class="cls-98" x1="141.17" y1="304.43" x2="162.08" y2="304.43"/><line class="cls-98" x1="141.17" y1="308.79" x2="153.77" y2="308.79"/><line class="cls-98" x1="157.5" y1="308.79" x2="160.79" y2="308.79"/><line class="cls-98" x1="165.42" y1="308.79" x2="169.9" y2="308.79"/><rect class="cls-93" x="141.17" y="275.73" width="32.64" height="19.11"/><polygon class="cls-95" points="160.71 285.29 157.5 287.15 154.28 289 154.28 285.29 154.28 281.57 157.5 283.43 160.71 285.29"/></g></g></svg>